<svg id="Layer_1" xmlns="http://www.w3.org/2000/svg" viewBox="0 0 429 206.5"><style>.st0{fill:#FFFFFF;}</style><path class="st0" d="M198.5 202c0 1.2 0 2.1.1 2.6 0 .3.1.6.5.7h.5c.1 0 .1 0 .1.1s-.1.1-.2.1h-2.7c-.1 0-.2 0-.2-.1 0 0 0-.1.1-.1h.4c.2 0 .3-.3.3-.7.1-.5.1-1.5.1-2.6v-1.3s0-.1-.1-.1h-5.1s-.1 0-.1.1v1.3c0 1.2 0 2.1.1 2.6 0 .3.1.6.5.7h.5c.1 0 .1 0 .1.1s-.1.1-.2.1h-2.7c-.1 0-.2 0-.2-.1 0 0 0-.1.1-.1h.4c.2 0 .3-.3.3-.7.1-.5.1-1.5.1-2.6v-2.1-2.6c0-.4-.1-.6-.5-.7h-.4s-.1 0-.1-.1.1-.1.2-.1H193c.1 0 .2 0 .2.1 0 0 0 .1-.1.1h-.3c-.3.1-.4.3-.4.7v2.9c0 .1 0 .1.1.1h5.1s.1 0 .1-.1v-.3-2.6c0-.4-.1-.6-.5-.7h-.4s-.1 0-.1-.1.1-.1.2-.1H199.5c.1 0 .2 0 .2.1 0 0 0 .1-.1.1h-.3c-.3.1-.4.3-.4.7v4.7zM204.4 202c0 1.2 0 2.1.1 2.6 0 .3.1.6.5.7h.5c.1 0 .1 0 .1.1s-.1.1-.2.1h-2.7c-.1 0-.2 0-.2-.1 0 0 0-.1.1-.1h.4c.2 0 .3-.3.3-.7.1-.5.1-1.5.1-2.6v-2.1-2.6c0-.4-.1-.6-.4-.7h-.4s-.1 0-.1-.1.1-.1.2-.1h2.4c.1 0 .2 0 .2.1 0 0 0 .1-.1.1h-.3c-.3.1-.4.3-.4.7v4.7zM208.5 205.3c-.2-.1-.2-.1-.2-.5 0-.6 0-1.1.1-1.3 0-.1 0-.2.1-.2s.1 0 .1.1v.4c.2.9 1 1.2 1.8 1.2 1.2 0 1.7-.8 1.7-1.6s-.3-1.3-1.4-2.2l-.5-.4c-1.3-1-1.6-1.8-1.6-2.6 0-1.3 1-2.2 2.5-2.2.5 0 .8 0 1.1.1.2 0 .3.1.4.1.1 0 .1 0 .1.1v1.3c0 .2 0 .3-.1.3s-.1-.1-.1-.2-.1-.5-.2-.6c-.1-.1-.4-.6-1.5-.6-.8 0-1.5.5-1.5 1.4 0 .7.3 1.1 1.5 2l.3.3c1.4 1.1 1.8 1.9 1.8 2.8 0 .5-.2 1.4-1 2-.5.4-1.2.5-1.8.5-.5.1-1.1 0-1.6-.2zM219.3 202c0 1.2 0 2.1.1 2.6 0 .3.1.6.5.7h.5c.1 0 .1 0 .1.1s-.1.1-.2.1h-2.7c-.1 0-.2 0-.2-.1 0 0 0-.1.1-.1h.4c.2 0 .3-.3.3-.7.1-.5.1-1.5.1-2.6v-5.1h-1.8c-.7 0-1 .1-1.2.4-.1.2-.2.3-.2.4 0 .1-.1.1-.1.1s-.1 0-.1-.1.2-1.2.3-1.2c0-.1.1-.2.1-.2.1 0 .2.1.5.1s.8.1.9.1h4.5c.4 0 .7 0 .9-.1.2 0 .3-.1.3-.1.1 0 .1.1.1.1v1.3c0 .1 0 .2-.1.2s-.1 0-.1-.2v-.1c0-.4-.3-.6-1.5-.7h-1.5v5.1zM228.6 196.2c2.7 0 4.7 1.7 4.7 4.5 0 2.7-1.9 4.9-4.8 4.9-3.3 0-4.7-2.6-4.7-4.7.1-2 1.5-4.7 4.8-4.7zm.3 8.9c1.1 0 3.3-.6 3.3-4.1 0-2.9-1.8-4.4-3.6-4.4-2 0-3.5 1.3-3.5 3.9-.1 2.8 1.6 4.6 3.8 4.6zm1.5-10.4c.1.1 0 .1 0 .1h-.4c-.6.1-1.4.3-1.8.5-.1 0-.2.1-.2.1s-.1 0-.1-.1c0 0 0-.1.1-.1.4-.3 1.5-1 1.6-1 .2-.1.3-.2.3-.2s.1 0 .1.1c.2.2.3.4.4.6zM236.5 199.8v-2.6c0-.4-.1-.6-.5-.7h-.4s-.1 0-.1-.1.1-.1.2-.1h2.8c.8 0 1.6.1 2.2.5.3.2.8.8.8 1.6 0 .9-.4 1.8-1.5 2.8 1 1.3 1.8 2.3 2.5 3.1.6.7 1.2.8 1.5.9h.5c.1 0 .1 0 .1.1s-.1.1-.3.1h-.9c-.7 0-1-.1-1.3-.2-.5-.3-.9-.9-1.6-1.8-.5-.7-1.1-1.5-1.3-1.8 0 0-.1-.1-.2-.1h-1.5c-.1 0-.1 0-.1.1v.3c0 1.2 0 2.1.1 2.6 0 .3.1.6.5.7h.5c.1 0 .1 0 .1.1s-.1.1-.2.1h-1.5-1.1c-.1 0-.2 0-.2-.1 0 0 0-.1.1-.1h.4c.2 0 .3-.3.3-.7.1-.5.1-1.5.1-2.6v-2.1zm.9 1.1c0 .1 0 .1.1.1.2.1.7.2 1.3.2.3 0 .6 0 .9-.2.4-.3.7-.9.7-1.8 0-1.5-.8-2.4-2.1-2.4-.4 0-.7 0-.8.1-.1 0-.1.1-.1.1v3.9zM247.1 202c0 1.2 0 2.1.1 2.6 0 .3.1.6.5.7h.5c.1 0 .1 0 .1.1s-.1.1-.2.1h-2.7c-.1 0-.2 0-.2-.1 0 0 0-.1.1-.1h.4c.2 0 .3-.3.3-.7.1-.5.1-1.5.1-2.6v-2.1-2.6c0-.4-.1-.6-.4-.7h-.4s-.1 0-.1-.1.1-.1.2-.1h2.4c.1 0 .2 0 .2.1 0 0 0 .1-.1.1h-.3c-.3.1-.4.3-.4.7v4.7zM253.7 196.7c.1-.4.2-.5.3-.5.1 0 .1.1.3.4.2.5 2.1 5.4 2.8 7.2.4 1.1.8 1.3 1 1.3.2.1.4.1.5.1.1 0 .1 0 .1.1s-.1.1-.2.1h-1.9c-.2 0-.4 0-.4-.1 0 0 0-.1.1-.1s.1-.1.1-.3l-1.1-3s0-.1-.1-.1h-2.6c-.1 0-.1 0-.1.1l-.7 2.1c-.1.3-.2.6-.2.8 0 .2.3.3.5.3h.1c.1 0 .1 0 .1.1s-.1.1-.2.1h-2.3c-.2 0-.2 0-.2-.1 0 0 0-.1.1-.1h.3c.6-.1.8-.5 1-1.1l2.7-7.3zm1.3 4.8s0-.1 0 0l-1.1-3.3c-.1-.2-.1-.2-.2 0l-1.1 3.2v.1h2.4zM259.8 204.6c0-.3.4-.6.7-.6.1 0 .1 0 .2.2.2.2.2.4.2.5 0 .1-.1.3-.1.5-.1.3-.4.9-.8 1.3 0 .1-.1.1-.2.1 0 0-.1 0-.1-.1 0 0 .1-.1.1-.2.2-.3.3-.6.3-.9.1-.5-.3-.7-.3-.8zM270.8 196.7c.1-.4.2-.5.3-.5s.1.1.3.4c.2.5 2.1 5.4 2.8 7.2.4 1.1.8 1.3 1 1.3.2.1.4.1.5.1.1 0 .1 0 .1.1s-.1.1-.2.1h-1.9c-.2 0-.4 0-.4-.1 0 0 0-.1.1-.1s.1-.1.1-.3l-1.1-3s0-.1-.1-.1h-2.6c-.1 0-.1 0-.1.1l-.7 2.1c-.1.3-.2.6-.2.8 0 .2.3.3.5.3h.1c.1 0 .1 0 .1.1s-.1.1-.2.1h-2.3c-.2 0-.2 0-.2-.1 0 0 0-.1.1-.1h.3c.6-.1.8-.5 1-1.1l2.7-7.3zm1.3 4.8s0-.1 0 0l-1.1-3.3c-.1-.2-.1-.2-.2 0l-1.1 3.2v.1h2.4zM278.1 199.8v-2.6c0-.4-.1-.6-.5-.7h-.4s-.1 0-.1-.1.1-.1.2-.1h2.8c.8 0 1.6.1 2.2.5.3.2.8.8.8 1.6 0 .9-.4 1.8-1.5 2.8 1 1.3 1.8 2.3 2.5 3.1.6.7 1.2.8 1.5.9h.5c.1 0 .1 0 .1.1s-.1.1-.3.1h-.9c-.7 0-1-.1-1.3-.2-.5-.3-.9-.9-1.6-1.8-.5-.7-1.1-1.5-1.3-1.8 0 0-.1-.1-.2-.1h-1.5c-.1 0-.1 0-.1.1v.3c0 1.2 0 2.1.1 2.6 0 .3.1.6.5.7h.5c.1 0 .1 0 .1.1s-.1.1-.2.1h-1.5-1.1c-.1 0-.2 0-.2-.1 0 0 0-.1.1-.1h.4c.2 0 .3-.3.3-.7.1-.5.1-1.5.1-2.6v-2.1zm1 1.1c0 .1 0 .1.1.1.2.1.7.2 1.3.2.3 0 .6 0 .9-.2.4-.3.7-.9.7-1.8 0-1.5-.8-2.4-2.1-2.4-.4 0-.7 0-.8.1-.1 0-.1.1-.1.1v3.9zM289.7 202c0 1.2 0 2.1.1 2.6 0 .3.1.6.5.7h.5c.1 0 .1 0 .1.1s-.1.1-.2.1H288c-.1 0-.2 0-.2-.1 0 0 0-.1.1-.1h.4c.2 0 .3-.3.3-.7.1-.5.1-1.5.1-2.6v-5.1h-1.8c-.7 0-1 .1-1.2.4-.1.2-.2.3-.2.4 0 .1-.1.1-.1.1s-.1 0-.1-.1.2-1.2.3-1.2c0-.1.1-.2.1-.2.1 0 .2.1.5.1s.8.1.9.1h4.5c.4 0 .7 0 .9-.1.2 0 .3-.1.3-.1.1 0 .1.1.1.1v1.3c0 .1 0 .2-.1.2s-.1 0-.1-.2v-.1c0-.4-.3-.6-1.5-.7h-1.5v5.1zM296 199.8v-2.6c0-.4-.1-.6-.5-.7h-.4s-.1 0-.1-.1.1-.1.2-.1h4.1c.2 0 .4 0 .5-.1.1 0 .1-.1.2-.1v.1c0 .1-.1.2-.1.6 0 .1 0 .6-.1.8 0 .1 0 .1-.1.1s-.1-.1-.1-.2 0-.3-.1-.4c-.1-.2-.2-.3-.9-.4H297s-.1 0-.1.1v3.3c0 .1 0 .1.1.1h1.9c.3 0 .5 0 .6-.2.1-.1.1-.2.2-.2 0 0 .1 0 .1.1s-.1.3-.1.7v.8c0 .1 0 .2-.1.2s-.1 0-.1-.1v-.4c0-.2-.2-.4-.6-.4-.3 0-1.5-.1-1.7-.1-.1 0-.1 0-.1.1v3.2c0 .8.2 1 1.4 1 .3 0 .8 0 1.2-.1s.5-.4.5-.9c0-.1 0-.2.1-.2s.1.1.1.2-.1.9-.2 1.2c-.1.3-.2.3-.6.3h-2.9-1.2c-.1 0-.2 0-.2-.1 0 0 0-.1.1-.1h.4c.2 0 .3-.3.3-.7.1-.5.1-1.5.1-2.6v-2.1zM306.9 202.9c0-1.4.9-2.3 1.8-2.9-.4-.6-.6-1.1-.6-1.7 0-.9 1-2.2 2.6-2.2.6 0 1.1.1 1.5.3.1.1.2.2.2.3 0 .4 0 1.2-.1 1.4 0 .2-.1.2-.1.2-.1 0-.1 0-.1-.2 0-.3-.1-.7-.4-1-.3-.3-.7-.5-1.2-.5-.7 0-1.5.4-1.5 1.6 0 .9.6 1.7 1.9 3.1.4.4 1.9 1.8 2.3 2.1.3-.5.6-1.3.6-2 0-.2 0-.4-.2-.6-.2-.2-.4-.2-.6-.2-.1 0-.1 0-.1-.1s.1-.1.2-.1c.3 0 .8 0 1.4.1.2 0 .2.1.2.2 0 1-.7 2.2-1.2 2.8.8.7 1.3 1 1.7 1.2.4.2 1 .5 1.4.5.1 0 .2 0 .2.1 0 0-.1.1-.2.1h-1.2c-.9 0-1.2-.1-2.5-1.1-.3.3-1.2 1.3-3 1.3-2.2 0-3-1.6-3-2.7zm5.6 1.2c-.7-.6-1.9-1.7-2.2-2-.3-.3-1.1-1.2-1.4-1.7-.6.4-1.1 1.1-1.1 2 0 1.5 1.1 2.6 2.4 2.6 1.2 0 1.9-.5 2.3-.9zM325.5 204c.7-1.6 2.3-5.8 2.6-6.7.1-.2.1-.3.1-.5 0-.1 0-.2-.2-.3h-.5c-.1 0-.1 0-.1-.1s.1-.1.3-.1h2.1c.1 0 .2 0 .2.1s0 .1-.1.1-.3 0-.6.1c-.2.1-.3.3-.7 1.1-.1.3-.7 1.8-1.3 3.3-.7 1.8-1.3 3-1.5 3.6-.3.7-.4.9-.5.9-.1 0-.2-.2-.4-.7l-2.9-7.4c-.3-.7-.4-.8-.9-.9h-.5s-.1 0-.1-.1.1-.1.3-.1h2.5c.2 0 .3 0 .3.1s0 .1-.1.1-.3 0-.5.1l-.2.2c0 .2.1.5.3 1l2.4 6.2zM333.4 202c0 1.2 0 2.1.1 2.6 0 .3.1.6.5.7h.5c.1 0 .1 0 .1.1s-.1.1-.2.1h-2.7c-.1 0-.2 0-.2-.1 0 0 0-.1.1-.1h.4c.2 0 .3-.3.3-.7.1-.5.1-1.5.1-2.6v-2.1-2.6c0-.4-.1-.6-.4-.7h-.4s-.1 0-.1-.1.1-.1.2-.1h2.4c.1 0 .2 0 .2.1 0 0 0 .1-.1.1h-.3c-.3.1-.4.3-.4.7v4.7zM338.6 203.8c0 1 .1 1.3.5 1.4.2.1.5.1.6.1.1 0 .1 0 .1.1s-.1.1-.2.1h-2.5c-.1 0-.2 0-.2-.1 0 0 0-.1.1-.1s.3 0 .5-.1c.3-.1.4-.4.4-1.5v-6.9c0-.5 0-.6.1-.6s.3.3.4.4c.2.2 2 2.1 3.8 4.1 1.2 1.3 2.5 2.7 2.9 3.1l-.1-6.1c0-.8-.1-1-.5-1.1-.2 0-.5-.1-.6-.1-.1 0-.1 0-.1-.1s.1-.1.2-.1h2.2c.1 0 .2 0 .2.1 0 0 0 .1-.1.1h-.3c-.4.1-.4.3-.4 1.1v7c0 .8 0 .9-.1.9s-.2-.1-.9-.8c-.1-.1-1.9-1.9-3.1-3.3-1.4-1.5-2.7-3-3.1-3.4l.2 5.8zM357.4 202c0 1.2 0 2.1.1 2.6 0 .3.1.6.5.7h.5c.1 0 .1 0 .1.1s-.1.1-.2.1h-2.7c-.1 0-.2 0-.2-.1 0 0 0-.1.1-.1h.4c.2 0 .3-.3.3-.7.1-.5.1-1.5.1-2.6v-1.3s0-.1-.1-.1h-5.1s-.1 0-.1.1v1.3c0 1.2 0 2.1.1 2.6 0 .3.1.6.5.7h.5c.1 0 .1 0 .1.1s-.1.1-.2.1h-2.7c-.1 0-.2 0-.2-.1 0 0 0-.1.1-.1h.4c.2 0 .3-.3.3-.7.1-.5.1-1.5.1-2.6v-2.1-2.6c0-.4-.1-.6-.5-.7h-.4s-.1 0-.1-.1.1-.1.2-.1H351.9c.1 0 .2 0 .2.1 0 0 0 .1-.1.1h-.3c-.3.1-.4.3-.4.7v2.9c0 .1 0 .1.1.1h5.1s.1 0 .1-.1v-.3-2.6c0-.4-.1-.6-.5-.7h-.4s-.1 0-.1-.1.1-.1.2-.1H358.4c.1 0 .2 0 .2.1 0 0 0 .1-.1.1h-.3c-.3.1-.4.3-.4.7v4.7zM365.4 196.2c2.7 0 4.7 1.7 4.7 4.5 0 2.7-1.9 4.9-4.8 4.9-3.3 0-4.7-2.6-4.7-4.7.1-2 1.5-4.7 4.8-4.7zm.2 8.9c1.1 0 3.3-.6 3.3-4.1 0-2.9-1.8-4.4-3.6-4.4-2 0-3.5 1.3-3.5 3.9 0 2.8 1.7 4.6 3.8 4.6zM372.8 205.3c-.2-.1-.2-.1-.2-.5 0-.6 0-1.1.1-1.3 0-.1 0-.2.1-.2s.1 0 .1.1v.4c.2.9 1 1.2 1.8 1.2 1.2 0 1.7-.8 1.7-1.6s-.3-1.3-1.4-2.2l-.5-.4c-1.3-1-1.6-1.8-1.6-2.6 0-1.3 1-2.2 2.5-2.2.5 0 .8 0 1.1.1.2 0 .3.1.4.1.1 0 .1 0 .1.1v1.3c0 .2 0 .3-.1.3s-.1-.1-.1-.2-.1-.5-.2-.6c-.1-.1-.4-.6-1.5-.6-.8 0-1.5.5-1.5 1.4 0 .7.3 1.1 1.5 2l.3.3c1.4 1.1 1.8 1.9 1.8 2.8 0 .5-.2 1.4-1 2-.5.4-1.2.5-1.8.5-.5.1-1.1 0-1.6-.2zM131.9 81.2c2.4.7 3.5 2.3 3.3 4.9-3.5 2.6-7.5 3.3-12.1 2-6.3.4-12.5 1-18.5 1.6-6 .7-12 1.5-18.1 2.6-3.9.7-7.2 1.3-9.8 1.8-2.6.5-4.9 1.4-6.9 2.5s-3.8 2.6-5.4 4.6c-1.6 2-3.5 4.7-5.7 8.2-1.7 2.4-3.4 4.9-5.1 7.4-1.6 2.5-3.3 5-5.1 7.4-5.5 4.4-8.8 9.3-10.1 14.7-1.3 5.5-2.5 11-3.6 16.7.2.4.8 1.7 1.8 3.8 1 2.1 1.6 3.7 1.8 4.7 4.4-2.6 8.7-5.5 12.9-8.7 4.3-3.2 8.3-6.4 12.3-9.6 3.9-1.7 6.8-2.9 8.7-3.6 1.8-.7 3.2-.9 4.1-.8.9.1.3 1.1-1.6 3.1-2.8 2.8-5.9 5.8-9.3 9-3.4 3.2-7 6.2-11 9-3.9 2.8-8 5.3-12.1 7.4-4.1 2.1-8.3 3.4-12.4 4.1-7.2.9-11.7-.2-13.6-3.1-1.8-2.9-2.1-7-.7-12.1 1.4-5.1 4-10.9 7.8-17.3s7.9-12.7 12.3-18.8c4.4-6.1 8.4-11.5 12.3-16.3 3.8-4.8 6.4-8.1 7.7-9.8-3.5.4-6.9 1.3-10.3 2.5-3.4 1.2-6.8 2.5-10.1 3.8-3.4 1.3-6.8 2.6-10.3 3.8-3.5 1.2-7.1 1.9-10.8 2.1-4.8.4-8.4 0-10.8-1.3-2.4-1.3-3.5-2.9-3.4-4.7.1-1.8 1.4-3.6 3.9-5.2s6.3-2.8 11.3-3.4c4.4-.4 8.8-.8 13.4-1.1 4.6-.3 9.2-.8 13.7-1.5 2-.2 4.7-1 8.3-2.3 3.6-1.3 6.2-1.6 7.7-1 1.3.7 2.6.7 3.8 0 1.2-.7 2.3-1.6 3.3-2.9 1-1.3 9.2-10.4 12.8-14.5 3.3-3.8 7.7-8 11.9-12.3s8.5-8.2 12.7-11.8c4.3-3.6 10-2.6 13-2-7 7.2-14.3 14.2-21.9 21.1-7.6 6.9-14.5 14.4-20.6 22.7 9.8-1.1 19.6-2.5 29.3-4.3 9.7-2.2 19.4-3.1 29.2-3.1z"/><path class="st0" d="M154.5 119.8c1.1 0 1.9.3 2.5 1 .5.7.9 1.4 1 2.1.1.8-.1 1.5-.7 2.3-.5.8-1.3 1.1-2.1 1.1-2.4 0-4.7 1.1-6.9 3.3-2.2 2.2-4.2 4.7-6 7.5-1.9 2.8-3.4 5.7-4.7 8.5-1.3 2.8-2.3 5-2.9 6.5-1.7 3.7-3 7-3.8 9.8-.8 2.8-1.6 5.5-2.5 7.8-.9 2.4-2.1 4.8-3.6 7.2-1.5 2.4-3.7 5-6.5 7.8-4.6 4.8-9.6 7.6-15 8.5-5.5.9-10.4-1.4-14.7-6.9-1.5-2.4-2.7-4.9-3.6-7.5-.9-2.6-1.2-5.3-1-8.2.4-1.5 1.8-2.8 4.1-3.8s3.6-.3 4.1 2.1c.9.9 1.4 2.2 1.5 4.1.1 1.9.2 3.8.2 5.7s.2 3.8.7 5.4c.4 1.6 1.4 2.6 2.9 2.8 2.2.4 4.1.2 5.7-.8 1.6-1 3-2.2 4.3-3.6 1.2-1.4 2.2-3 2.9-4.9.8-1.8 1.5-3.5 2.1-5.1.2-.9.7-2.7 1.5-5.6.8-2.8 1.8-6.3 3.1-10.3 1.3-4 3-8.3 5.2-12.9s4.9-9 8.2-13.4l-16.3 3.3c-2.6.7-4.9 1-6.7 1-1.9 0-3.4.2-4.7.7-1.3.4-2.4 1.3-3.3 2.5-.9 1.2-1.5 3.2-2 6-.7 2.2-1.4 4.4-2.3 6.5-.9 2.2-1.9 4.4-2.9 6.5-.7 1.3-2.2 3.3-4.7 5.9-2.5 2.6-5.4 5.2-8.7 7.8s-6.7 5.1-10.1 7.4c-3.5 2.3-6.6 3.8-9.5 4.4-2.8.7-5 .2-6.5-1.3s-2-4.7-1.3-9.5c.2-3 1.5-6.9 3.9-11.6 2.4-4.7 5.2-9.3 8.5-13.9s6.8-8.8 10.5-12.6c3.7-3.8 7.1-6.4 10.1-7.7 1.7-.9 3.4-1.1 5.1-.8 1.6.3 3.2.8 4.7 1.5s3.1 1.3 4.7 1.8 3.4.6 5.4.2c2.8-.2 6.5-.8 11-1.8s9.2-2 14.1-2.9c4.9-1 9.6-1.9 14.1-2.8 4.1-.7 7.8-1.1 10.9-1.1zm-71.6 14.7c-4.4 3.7-7.8 8.2-10.5 13.6-2.6 5.3-4.5 10.7-5.6 16.2 3.9-4.4 7.8-8.8 11.8-13.2 3.9-4.5 7.7-9.1 11.4-13.9-2.5-.1-4.9-1-7.1-2.7zM202.4 141.3c.9-.7 1.7-.8 2.5-.5.8.3 1.4.8 2 1.5.5.7.8 1.4.7 2.3-.1.9-.6 1.6-1.5 2.3-2 1.1-3.9 2.3-5.9 3.8-2 1.4-3.8 2.9-5.6 4.4-4.4 3.7-9 7-13.9 10-4.9 2.9-10.1 5.5-15.5 7.7-.4.9-1.8 1.9-4.1 3.1-2.3 1.2-4.7 2.1-7.2 2.6s-4.7.6-6.7.2c-2-.4-2.7-1.8-2.3-4.2-.2-3.5 0-7.3.7-11.4.7-3.5 2-7.3 4.1-11.4 2.1-4.1 4.6-8.1 7.5-11.9 2.9-3.8 6.2-7.2 9.6-10.1 3.5-2.9 7.1-4.8 10.8-5.7 4.8-1.1 8.2-.3 10.1 2.3 2 2.6 2 6 0 10.1-1.1 2.4-2 3.4-2.6 2.9-.7-.4-1.2-1.4-1.6-2.8-.4-1.4-.7-2.9-.8-4.4-.1-1.5-.2-2.2-.2-2-.7-1.3-2.3-.8-5.1 1.5-2.7 2.3-5.4 5.3-8 9-2.6 3.7-4.7 7.6-6.2 11.8-1.5 4.1-1.4 7.5.3 10.1 3.5.7 6.9.3 10.3-1.1 3.4-1.4 6.8-3.3 10.1-5.7 3.4-2.4 6.6-4.9 9.6-7.5 3.1-2.9 6-5.1 8.9-6.9zM359.9 141.7c2.2.9 3.2 1.9 2.9 3.1-.2 1.2-1 2.3-2.3 3.3-1.3 1-2.7 1.9-4.3 2.8-1.5.9-2.5 1.4-2.9 1.6-4.8 2.8-9.4 6-13.7 9.6-4.4 3.6-9 6.5-14.1 8.7-5.4 2.2-9.4 2.8-11.8 2-2.4-.9-3.9-2.6-4.6-5.2-.7-2.6-.7-5.8 0-9.5s1.5-7.3 2.6-10.8c-2 1.3-5.2 4.2-9.8 8.7-4.6 4.5-9.5 9-14.9 13.6-5.3 4.6-10.5 8.3-15.4 11.3-4.9 2.9-8.6 3.5-11 1.8-.7-.4.1-2.7 2.3-6.7 2.2-4 4.7-8.5 7.7-13.4 2.9-4.9 5.8-9.6 8.7-14.1 2.8-4.5 4.5-7.5 4.9-9-.7.4-2.2 1.7-4.6 3.8-2.4 2.1-4.9 4-7.5 5.7-2.6 1.7-5.1 2.9-7.4 3.6-2.3.7-3.5-.1-3.8-2.3-.2-1.3.5-2.8 2.1-4.4 1.6-1.6 3.6-3.2 5.9-4.7 2.3-1.5 4.5-2.9 6.7-4.1 2.2-1.2 3.7-2.1 4.6-2.8.4-.2 2-1.3 4.7-3.1s5.6-3.5 8.5-4.9c2.9-1.4 5.6-2.3 7.8-2.8 2.3-.4 3.1.7 2.5 3.3-.7 4.1-.9 7.6-.8 10.5.1 2.8-.9 6.3-3.1 10.5 5.9-4.4 11.8-9 17.8-13.9s12-9.1 18.1-12.6c2-1.1 3.6-1.5 4.9-1.3 1.3.2 2.3.8 2.9 1.6.7.9.8 1.7.5 2.6-.3.9-1.1 1.4-2.5 1.6-2.4 1.7-4.8 3.5-7.2 5.2-2.4 1.7-4.5 3.8-6.2 6.2-2.6 3.3-4 6-4.1 8.3-.1 2.3.5 4 2 5.1 1.4 1.1 3.5 1.6 6.2 1.5 2.7-.1 5.7-.8 9-2.1 1.1-.4 2.5-1.3 4.3-2.5 1.7-1.2 3.5-2.4 5.2-3.6 1.7-1.2 3.4-2.1 5.1-2.6 1.9-.7 3.2-.5 4.1.4z"/><g><path class="st0" d="M267 142.5c1.5-1.5 2.6-2 3.1-1.5s.7 1.5.5 2.8c-.2 1.3-.7 2.8-1.5 4.6-.8 1.7-1.7 3.1-2.8 3.9-7.6 6.8-15.5 12.5-23.5 17.3-2.8 1.5-5.8 2.7-9 3.6-3.2.9-6.1 1-8.8.5-2.7-.5-5.1-1.8-7-3.9-2-2.1-3.3-5.2-3.9-9.3-4.8 3.3-9.4 6.7-13.9 10.3-4.5 3.6-9.3 6.4-14.5 8.3-4.4 1.5-7.3 1.7-8.8.7-1.5-1.1-2.1-2.8-1.8-5.1.3-2.3 1.3-4.8 2.8-7.7 1.5-2.8 3.2-5.2 4.9-7.2 3.5-4.1 7.6-8.3 12.4-12.6 4.8-4.2 9.9-8.2 15.2-11.9 5.3-3.7 10.8-7.1 16.3-10.3 5.6-3.2 10.8-5.7 15.9-7.7 3-1.3 6-2.1 8.8-2.5 2.8-.3 4.8-.2 6 .3 1.2.5 1.3 1.4.3 2.5s-3.9 2.4-8.7 3.9c.2 1.1-.2 2.5-1.3 4.3-1.1 1.7-2.3 3.6-3.8 5.6-1.4 2-2.8 3.8-4.1 5.4-1.3 1.6-2.3 2.9-2.9 3.8-.9 1.3-1.9 3.2-3.1 5.7-1.2 2.5-2 5-2.5 7.5-.4 2.5-.3 4.6.5 6.2.8 1.6 2.8 2.3 6 2.1 2.6 0 5.2-.7 7.8-2 2.6-1.3 5.2-2.9 7.7-4.9 2.5-2 4.9-4.1 7.2-6.4 2.4-2.3 4.5-4.4 6.5-6.3zm-58.5 14c2-1.5 3.5-3 4.6-4.4 1.1-1.4 2.1-2.9 2.9-4.4.9-1.5 1.7-3.2 2.5-4.9.8-1.7 1.8-3.6 3.1-5.6-4.1 3.1-8.1 5.8-11.8 8.2-3.7 2.4-6.4 5.8-8.2 10.1-.4 2-.4 3.2 0 3.6.4.4 1 .5 1.8.3s1.6-.7 2.6-1.3c1-.6 1.8-1.2 2.5-1.6z"/></g><g><path class="st0" d="M421.5 142.5c1.5-1.5 2.6-2 3.1-1.5s.7 1.5.5 2.8c-.2 1.3-.7 2.8-1.5 4.6-.8 1.7-1.7 3.1-2.8 3.9-7.6 6.8-15.5 12.5-23.5 17.3-2.8 1.5-5.8 2.7-9 3.6-3.2.9-6.1 1-8.8.5-2.7-.5-5.1-1.8-7-3.9-2-2.1-3.3-5.2-3.9-9.3-4.8 3.3-9.4 6.7-13.9 10.3-4.5 3.6-9.3 6.4-14.5 8.3-4.4 1.5-7.3 1.7-8.8.7-1.5-1.1-2.1-2.8-1.8-5.1.3-2.3 1.3-4.8 2.8-7.7 1.5-2.8 3.2-5.2 4.9-7.2 3.5-4.1 7.6-8.3 12.4-12.6 4.8-4.2 9.9-8.2 15.2-11.9 5.3-3.7 10.8-7.1 16.3-10.3 5.6-3.2 10.8-5.7 15.9-7.7 3-1.3 6-2.1 8.8-2.5 2.8-.3 4.8-.2 6 .3 1.2.5 1.3 1.4.3 2.5s-3.9 2.4-8.7 3.9c.2 1.1-.2 2.5-1.3 4.3-1.1 1.7-2.3 3.6-3.8 5.6-1.4 2-2.8 3.8-4.1 5.4s-2.3 2.9-2.9 3.8c-.9 1.3-1.9 3.2-3.1 5.7-1.2 2.5-2 5-2.5 7.5-.4 2.5-.3 4.6.5 6.2.8 1.6 2.8 2.3 6 2.1 2.6 0 5.2-.7 7.8-2 2.6-1.3 5.2-2.9 7.7-4.9 2.5-2 4.9-4.1 7.2-6.4 2.4-2.3 4.5-4.4 6.5-6.3zm-58.5 14c2-1.5 3.5-3 4.6-4.4 1.1-1.4 2.1-2.9 2.9-4.4.9-1.5 1.7-3.2 2.5-4.9.8-1.7 1.8-3.6 3.1-5.6-4.1 3.1-8.1 5.8-11.8 8.2-3.7 2.4-6.4 5.8-8.2 10.1-.4 2-.4 3.2 0 3.6.4.4 1 .5 1.8.3s1.6-.7 2.6-1.3c1-.6 1.8-1.2 2.5-1.6z"/></g><g><path class="st0" d="M424.4 79.9c1.5-.9 3.3-1.6 4.7-2.9-.4 0-.7.1-1 .3-2.5 1.1-5 2.4-7.6 3.4-1.2.5-2.5.8-3.8 1.1-1.8.4-3.7.7-5.5 1.1-1 .2-2.1.4-3.2.5-1.5.1-3 .1-4.5.2-.6 0-1.3 0-1.8.2-2.8 1-5.7 1.1-8.5 1.4-2 .3-4 .4-6.1.6-1.9.2-3.9.2-5.8.4-.9.1-1.7.1-2.6.2-1.6.1-3.2.3-4.7.4-.1-.4-.1-.9-.2-1.3h-.7c-.3 0-.5 0-.8-.1-.1 1.4-.3 1.3-2 1.3-3.9-.2-7.7-.3-11.6-.4-.9 0-1.9 0-2.8.2-3 .7-6 1.5-9 2.2-2.8.7-5.6.7-8.4.3-.3 0-.8-.3-.8-.5 0-.5 0-1.2.3-1.5 1.2-1.2 2.7-1.9 4.5-1.7.5.1 1 0 1.6-.1.4 0 .9 0 1.3.1-.6.5-1.2.8-1.7 1.2-.1.1-.2.3-.3.5.2.1.4.2.5.1.4-.1.8-.2 1.1-.4l3-1.5c0 .1.1.1.1.2-.7.4-1.4.9-2 1.3-.2.1-.3.5-.3.7 0 .1.5.3.6.3 1-.6 2.3-1.1 2.8-2 .5-.9 1.1-.8 1.7-.9 1.5-.4 3.1-.7 4.6-1.1.2-.1.4-.5.6-.7-.3-.2-.5-.6-.8-.6-.7 0-1.3.1-2 .1-1.9.1-3.8.2-6 .3.6-2 .1-3.5-1.4-4.8-.3.1-.7.3-1 .6l-3.9 4.2c-.2.2-.6.4-.9.6-.1-.1-.2-.2-.2-.3l3.3-4.5c.3-.4.5-1.1 1.3-.8.1 0 .3-.2.4-.3.7-1.3.4-2.7-.8-3.5.2-1.3.1-1.4-1.1-1.9-.3-.1-.7-.2-.9-.5-.2-.2-.2-.5-.3-.7-.1-.2-.1-.5-.1-.7-.3.1-.6 0-.8.2-.3.3-.5.7-.9 1.2.4-2.3 1.1-4.2 2.5-5.7.6-.6.6-1.2.1-1.9-.3-.5-.5-1.1-.7-1.6-.7-2.4-.3-4.8-.2-7.2 0-.5-.2-1.1-.3-1.7-.1 0-.2 0-.3-.1.5-.5.9-1.1 1.4-1.5.4-.4 1-.7 1.4-1.2.1-.1.1-.5.1-.7h-.7c-.2 0-.3.2-.4.3-.7.7-1.4 1.3-2.1 2l-.2-.2c.1-.3.2-.5.4-.8.6-.8 1.2-1.6 1.8-2.5.1-.2.1-.5.2-.7-.2 0-.6 0-.7.2-1.1 1.6-2.8 2.9-2.3 5.2 0 .1 0 .2-.1.3-1.2 1.9-2.3 3.8-3.5 5.7-.4-1-.5-1.9.1-2.7.6-.8 1.2-1.6 1.7-2.4.8-1.4 1.4-2.8 2.1-4.3.1-.2-.1-.4-.1-.6-.2.1-.4.2-.5.4-.2.2-.2.5-.3.8-.8 2-1.9 3.7-3.3 5.3-.1-.8-.1-1.5 0-2.2.1-.6.4-1.3.8-1.8.5-.5.7-.9.5-1.7-.4-1.3.4-2.8 1.3-2.9.3.6.5 1.1.8 1.6 0 .1.4 0 .6-.1.1 0 0-.4-.1-.5-.2-.3-.4-.7-.5-.9.3-.3.5-.5.7-.8-.3-.1-.5-.2-.8-.3-1.6 0-2.6.8-2.8 2.4-.2 1.3 0 2.6-1.1 3.6-.2.2-.3.7-.3 1-.1 1.2-.2 2.3-.1 3.5 0 .7-.2 1.1-.7 1.3-.9.3-1.9.5-2.8.7-.4.1-.9 0-1.3.1s-.9.4-1.3.6c.4.1.9.2 1.4.3 0 .4 0 1 .1 1.5.1.3.4.5.6.7.2-.3.4-.5.4-.8.1-.5.1-1 .1-1.3 1.3-.4 2.4-.7 3.7-1.1 0 .7 0 1.3-.1 1.9-.2 1.1-.5 2.2-.6 3.3 0 1.3.1 2.7.3 4 .1.7 0 1.1-.8 1.1-.9 0-1.9.2-2.8.3-.2 0-.3.3-.5.5.2.1.5.2.7.2 1.2-.1 2.4-.3 3.7-.4.1.8.2 1.6.2 2.4-.8.1-1.4.1-2 .3-.2.1-.4.5-.5.8.3.1.6.3.9.2.6-.1 1.1-.3 1.7-.5.2.6.4 1.1.4 1.6.1.5.2 1.3 0 1.4-.4.3-1 .8-1.7.1-.1-.1-.4.1-.6.2-.2.1-.3.3-.4.4-.3-.4-.5-.8-.7-1.1-.3.3-.6.6-.8 1-.8.1-1.6.1-2.5.3-.2 0-.4.4-.6.6.3.1.6.2.8.2.6-.1 1.3-.3 2.2-.5-.5 1.1-.9 2-1.3 2.8-.2-.4-.3-.7-.4-1-.3.2-.6.3-.9.5-.2.1-.3.4-.5.6-.4.3-.8.7-1.2.8-1.5.2-3 .2-4.8.3 0-3.2 0-6.4-.1-9.6 1.4 0 1.7-.2 1.4-1.2-.2-.9-.5-1.8-.9-2.6-.1-.2-.8-.3-.8-.2-.3.6-.8.4-1.2.3-.9-.2-1.8-.4-2.7-.7-.2-.1-.3-.4-.5-.6 1.8-.2 3.5-.3 5.2-.5.2 0 .4-.3.6-.5-.2-.2-.4-.5-.6-.4-1.7 0-3.4.1-5.1.2-1.3.1-1.6 1.1-.9 2.1.1.2.3.4.4.6h-.3c0 .4-.2.8 0 1 .6.7.5 1.4.5 2.2 0 1.2.2 2.4.1 3.6-.1 1.9-.4 3.8-.5 5.7-.1.8-.1 1.6-.1 2.4-1.7-.1-3.2-.1-4.7-.2-.2 0-.5-.1-.7-.2-.5-.4-.9-.8-1.4-1.2-.2-.2-.1-.7-.1-1.1v-1c-.3.1-.6.2-1 .2-.2 0-.4 0-.5.1-.9.1-1.9.3-2.8.4-1.1 0-2.2-.1-3.6-.1.9-1.5 1.7-2.8 2.5-4.1.1-.1.4-.2.6-.2 1.3 0 2.7 0 4 .2.9.1 1.3-.4 1.6-1 .1-.2-.1-.5-.1-.8-.2.1-.4.3-.7.4-.3.2-.6.5-.9.5-1.7 0-3.4-.1-5-.3-.6-.1-1.2-.3-1.8-.5-.8 1.1-1.6 2.3-2.6 3.6-.1-.3-.2-.4-.2-.5 0-.1 0-.2.1-.3.7-1.2 1.3-2.4 2-3.6.6-1.1 1.4-1.9 2.9-1.5.3.1.7 0 1.1 0 .1.2.1.3.2.4.2.2.4.4.5.6.1-.2.2-.5.2-.7.1-.3.1-.6.1-.9.1-.3.1-.6.2-.9-.4.1-.8.2-1.2.4-.2.1-.4.3-.6.4-.6.1-1.3.1-1.7.2l-1.2-1.2c.1-.6.3-1.4.4-2.2.2-1.3.2-1.3 1.6-1 1.3.3 2.6.4 3.8-.1.2-.1.3-.3.5-.5-.2-.1-.5-.2-.7-.2-.3 0-.6.1-1.1.2.1-1.2.2-2.3.3-3.4.5-.1.9-.1 1.3-.2s.9-.2 1.3-.3c-.3-.7-.9-.2-1.4-.2-.9 0-1.8.1-2.6.1.5 1.5-.1 2.8.1 4.2-.6 0-1.1 0-1.6-.1-1-.1-1.3-.4-1.4-1.4-.1-1.6-.2-3.3.3-4.8 0-.1.1-.3 0-.5-.1-.3-.3-.5-.4-.7-.2.2-.5.4-.6.6-.2.3-.3.7-.4 1v-.7c-.1-.4-.3-.9-.3-1.3.2-2.7.4-5.4.7-8.1 0-.2.1-.6.3-.7.7-.4 1.1-.8.8-1.7-.3-.8-1-1.3-1.8-1.3-.2 0-.5.3-.7.4.2.1.5.1.7.2.4.2.8.4 1 .7.3.5-.2.6-.6.8-.3.2-.8.5-.8.7-.1 1 0 2 .1 2.9-.3-.1-.7-.3-1-.4-.1.4-.3.8-.4 1.2-.4 2.9-.7 5.8-1.1 8.7 0 .3-.3.5-.4.7.1-2.8.3-5.5.5-8.2 0-.6.2-1.2.1-1.8 0-.2-.4-.5-.6-.7-.1.2-.3.3-.4.5-.2.5-.3 1-.5 1.6 0 0 .3.2.5.3v.4c-.3 3.1-.6 6.3-1 9.4-.2 1.3-.6 2.7-.9 4 0 .1 0 .3.1.5.2-.1.5-.1.6-.2.3-.4.6-.8.9-1.3.1.6.2 1.2 0 1.7-.3.7-.7 1.7-1.3 1.8-.7.1-.9.4-.9.9V73c-.4 2.7-.9 5.4-1.2 8.1-.1 1-.5 1.1-1.4.6.6-1-.3-2.4 1-3.1.1 0 .1-.2.1-.3.2-1.6.5-3.2.6-4.8 0-.3-.3-.6-.5-1-.2.3-.6.6-.6.9-.1 1.2-.1 2.5-.2 3.8-.6-.2-.7.2-.7.9 0 .9-.1 1.7-.2 2.6 0 .3-.4.8-.5.8-.7 0-.4-.5-.3-.9.1-2.2.2-4.4.2-6.6 0-.2-.2-.4-.3-.5-.1.2-.3.4-.4.5-.1 1-.2 2-.2 2.9-.1 1.4-.1 2.9-.2 4.4-.5-.1-.9-.1-1.3-.2.1-1.3.1-2.5 1-3.5.5-.6 0-.8-.7-.9.2-1 .4-1.9.6-2.9v-.4c-.1-.8-.3-1.5-.4-2.3-.1-.5-.1-1.1-.2-1.6 0-.2-.4-.3-.6-.5-.1.2-.4.4-.4.5.3 1-.5 1.6-.9 2.4-.1-.5-.2-1.1 0-1.4.7-1.4 1.4-2.7 2.1-4 .1-.2.1-.4.2-.6-.2 0-.5-.1-.6 0l-1.8 1.5c-.4.3-.6.8-.9 1.1 0-.4.2-.6.3-.9.1-.2 0-.4 0-.6-.2.1-.4 0-.6.2-.3.3-.6.7-.8 1-.8 1.2-2 1.4-3.2 1.7.2-.8.4-1.5.6-2.2-.1 0-.3-.1-.4-.1-.4 1-.8 2.1-1.3 3.1.1 0 .2.1.2.1.2-.2.4-.3.7-.5l-.1 1.9c-.1 0-.2.1-.3.1-.7-1-1.3-2-2-2.9.2-.3.4-.7.6-.9.9-1 1.2-2.6 3-2.6.1 0 .2-.2.3-.4-.2-.1-.4-.3-.6-.3-.8 0-1.6.1-2.4 0-1.2-.1-1.5-.5-1.8-1.7-.1-.3-.4-.5-.7-.7-.2.3-.5.5-.7.8-.1.1 0 .3 0 .5h-.3c-.1-.3-.2-.7-.1-1 .2-.8.6-1.5.9-2.2.1-.2 0-.5 0-.8-.2.1-.6.2-.7.3-.5.9-1 1.8-1.4 2.8-.2.4-.1 1.1.2 1.4.2.3.8.2 1.3.2.4.5.8 1 1.3 1.6-.6.8-1.3 1.7-2 2.7-.1-1-.4-1.4-1.3-1.3-.6 0-1-.3-1.1-.9-.1-.4 0-.8-.5-.6-.2.1-.3.6-.2 1 0 .5.4 1.1.3 1.5-.6 2.2-1.7 4.3-3 6.4v-.9-.6c0-1.2-.3-1.5-1.5-1.6-.2 0-.5-.3-.5-.4.2-.9-.6-1.4-.8-2.1-.2-.6-.5-.5-.9-.3-.6.3-1.1.7-1.7 1.1-.4.2-.9.4-.6.9.1.2.8.2 1.1.1.6-.2 1-.6 1.6-1 .1.4.2.8.4 1.1-1.7.9-4.7.6-5.9-.7 1.1-.8 1.4-2.1 1.6-3.4 0-.3 0-.6.1-.8.5-.9 1-1.8 1.6-2.7.3-.4.7-.7 1-1 .1 0 .2.1.3.1-.2-.7-.4-1.4-.5-2.1-.1-.5 0-1.1 0-1.6 0-.3 0-.5-.1-.8-.1-.4-.4-.7-.5-1.1-.1-.9-.1-1.9-.2-2.9 0-.2-.4-.4-.5-.6-.1.2-.3.5-.3.7.1 1.1.2 2.3.4 3.4.1.7.1 1.3-.4 1.9-.8 1-1.6 2.1-2.4 3.2l-.3-.1c.1-1.1-.1-2.3.2-3.4.6-1.8.5-3.5 0-5.3-.1-.3-.4-.4-.6-.7-.1.3-.2.6-.2.8.5 1.7.2 3.2-.3 4.9-.6 2.2-1.8 4-3 5.9-.2.2-.4.6-.3.8.4.9-.2 1.1-.8 1.2-.4.1-.8.1-1.3.1-.8 0-.9.1-.6.9.2.5.3 1 .5 1.7-.7-.1-1.1-.3-1.6-.3-.3 0-.6.2-.8.4-.1.1-.1.5-.1.7-.3 0-.6-.1-.9-.1.1-.7.3-1.3.2-2 0-.5-.2-1.3-.5-1.4-.8-.4-1.5-1.2-2.5-.8-.1 0-.4 0-.5-.1-.6-.5-1.3-.5-2-.4-.5.1-1 0-1.6 0-.8 0-1.2-.6-1.3-1.3 0-.3.4-.8.6-1.2.1.6.1 1 .2 1.5.4-.2.9-.4 1.5-.7 0 .1.2.3.3.5.1.2.2.5.4.6.2.1.5-.1.6-.2.2-.5.5-.4.9-.3.3.1.6.2.9.2.4 0 .8-.2 1.2-.2-.2-.3-.4-.7-.7-1.1 0-.1.2-.2.3-.5.1-.2.1-.4.1-.6-.2 0-.4 0-.6.1-.2.2-.3.4-.6.6-.2.2-.5.2-1 .4.5-1.1.9-1.9 1.2-2.7.2-.4.2-.9.2-1.4 0-.1-.3-.2-.5-.3-.1.2-.2.4-.2.6 0 .2.1.5-.1.7-.4.8-.9 1.5-1.4 2.3-.1.2-.4.2-.7.4l-.2-.2c.4-.7.7-1.4 1.1-2.1.4-1 .8-2.1 1.2-3.1.1-.2-.2-.6-.3-.9-.2.2-.4.4-.5.6-.8 1.6-1.5 3.2-2.3 4.8-.1.1-.3.2-.4.3l-.2-.2c.2-.3.4-.7.5-1 .6-1.5 1.2-2.9 1.6-4.4.2-.5.3-.8.8-1.1.4-.2.9-.8.8-1-.4-.7-.8 0-1.2.2-.7.3-1.3.8-2 .1-.2-.1-.4-.1-.7-.2 0 .3 0 .6.1.7.4.4 1 .6 1.7 1-.8 1.6-1.7 3.2-2.5 4.8-.1 0-.1-.1-.2-.1V61c-.1-.3-.2-.6-.3-.8-.2.2-.6.5-.6.7 0 .5.1 1 .2 1.5.1.2.2.5.4.7-1.3.3-2.8 0-3.9-.8.3-.6.4-1-.5-.9-.2 0-.5-.1-.6-.3-.6-.8-1.3-1.6-1.8-2.5-.6-1.2-1-2.5-1.6-3.7-.4-.8-1.1-1.6-1.7-2.3-.4-.4-1-.6-1.5-1-1.3-.9-1.3-1.2 0-2.2.1-.1.2-.2.4-.3 1.2-.8 1.5-1.5.4-2.5-.1-.1-.1-.2-.1-.3.9.3.7-.5.8-.9.1-.3.3-.9.4-.9 1 .1 1.2-.6 1.4-1.3.7-2.2 1.3-4.4 2.8-6.2 1.1-1.3 2.3-2.6 3.5-3.9.9-.9 1.8-1.8 2.9-2.4 1-.5 2.4-.2 3-1.6h.1c.4-.3.9-.6 1.3-.9 0 0 0-.1-.1-.1.5-.2 1-.4 1.4-.5-.3-.3-.6-.7-.9-1.1.3-.2.6-.5 1-.7 1.9-.7 3.9-1.4 5.8-2 1-.3 1.9.1 2.5 1 .5.8 1 1.7 1.3 2.6.4 1.4.6 2.9 1 4.3.3 1.2.1 2.3-.9 3.1.2-2.4-.8-3.8-3.1-4.4-.1 0-.4-.1-.4-.2 0-.9-.6-.9-1.6-.9.5-.4.8-.6 1.1-.9.3-.3.4-.7.6-1-.4-.1-.8-.2-1.2-.2-.1 0-.3 0-.4.1l-.9.6c.3.2.5.4.8.6-.6 1-.6 1.1.4 1.4-.1.5-.2.9-.3 1.4.1 0 .1.1.2.1.2-.1.4-.3.6-.4.2-.1.4-.2.6-.2 1.4.3 2.5 1.6 2.7 3 .2 1.3 0 2.4-.8 3.5-.5.7-.4 1.9.2 2.4-.1.1-.3.2-.3.3-.1.3-.2.7-.3 1 .3-.1.8-.1 1-.3.8-.8 1.6-1.6 2.3-2.4.8-1 1.5-2 2.2-3 .9.9.9 1 .1 1.9-1.6 1.8-3.2 3.5-4.8 5.2-.2.2-.2.5-.3.7.3 0 .5-.1.8-.2.1 0 .2-.2.3-.3 1.6-1.7 3.2-3.5 4.8-5.3-.2 1.3-.3 2.7-1.1 3.9-.8 1.2-1.6 2.4-2.5 3.6l.2.2 1.1-1.1c-.2.7-.6 1.2-.6 1.7.1 1.3-.3 2.3-.9 3.3-.1.1.1.5.2.7.2-.1.6-.1.7-.3.4-.7.6-1.5.9-2 .6-.1 1.1 0 1.4-.2.3-.3.4-.8.5-1.3 0-.1-.2-.4-.4-.5-.1 0-.3.2-.4.4-.1.1-.1.3-.1.4l-1-1c.2-.4.4-.9.6-1.3.7-1.1 1.4-2.2 2.1-3.2.5-.7 1.2-1.2 1.6-1.9 1.2-2 2.2-4 3.3-6 .1-.2.2-.3.2-.5.5-1.1 1.1-2.2 1.6-3.4.2-.4 0-1-.1-1.5 0-.4-.2-.8-.1-1.1.6-.9 2.6-1.3 3.6-.6-.6 1-.7 2.1-.1 3.1-1 .4-1.3.9-.8 1.8.4.8.8 1.5 1.3 2.4-.6-.2-1-.4-1.5-.5-.2-.1-.5 0-.8.1.1.2.1.6.3.7 1 .5 1 1.3.8 2.3-.1.5-.2 1-.2 1.5 0 1.6-.4 3.1-1.1 4.6-1.1 2.6-2.3 5.2-2.5 8.1 0 .6-.3 1.2-.3 1.9-.1 1-.7 2.1.1 3.2-.5-.1-.8-.3-1.1-.3-.3-.1-.8-.2-1 0-.2.2-.2.7-.1 1 .1.3.3.7.5 1 .4.5.8.9 1.2 1.4-.1.1-.3.1-.4.1-.3.1-.9.2-1 .4-.1.4.1.8.2 1.2.1.3.4.5.7.7 1.6 1.4 3.2 2.8 4.8 4.1l.6.3c-1.3-2.3-2.9-4.2-5.1-5.6.3-.1.6-.1.8-.1.4-.1.8-.3 1.2-.5-.2-.4-.3-.8-.5-1-.7-.8-1.5-1.5-2.3-2.3.6 0 1 .2 1.4.3.2.1.7.1.7-.1.1-.2.1-.6.1-.8 0-.6-.2-1.3-.1-1.9.1-.6.4-1.2.5-1.8 0-2.1 1-4 1.7-5.9.9-2.7 2.3-5.3 2.1-8.3v-1.6c0-.4.2-.9.3-1.3.2 0 .6 0 1.1-.1-.6-1.4-1.8-2.3-2-3.8.3.1.4.1.5.1.4 0 .8.1 1.2.1-.1-.4-.2-.8-.3-1.1-.5-1.2-.3-1.9.7-2.5.1-.1.3-.3.3-.4-.3-1.1.7-1.2 1.2-1.9.3 1.4 1.4.8 1.9.9.3 1.1.7 2.1.9 3.1.3 1.5 1 3.1 0 4.7-.1.1 0 .6.1.6.2.1.6 0 .7-.1.3-.2.5-.6.8-1.1 0 .8-.1 1.4-.1 2 0 .3.3.6.5.8.2-.2.5-.4.7-.7.1-.2.1-.5.2-.7.1 0 .2 0 .3-.1l1.2 3c.1.3-.3.7-.2 1 .1.3.7.4.8.7.5 1.4.8 2.9 1.2 4.4-.9.1-1.1.5-.9 1.3.1.3-.1.8-.3 1.1-1.2 1.9-1.1 3.2.3 5.1.1.2.1.6.1.8v.6c.2 0 .5-.1.9-.1.1.3.3.8.2 1-.5.9.1.9.6.8.7.6-1.3 1.7.5 2-.1.5-.4.9-.3 1.3.2.8 0 1.5-.6 2.1-.4.4-.5.9 0 1.4.2.2.5.6.4.8-.1.8-.3 1.7-.5 2.5 0 .2.2.5.3.8.2-.2.5-.4.6-.6.1-.1 0-.3.1-.5.2-1 .1-2.1.9-3 .9-1.1 1.6-2.3 2.3-3.4.1-.2.2-.5.2-.7-.1 0-.1-.1-.2-.1-.2.1-.4.3-.6.4 0 0 0-.1-.1-.1.4-.4.7-.9 1.1-1.3L293 56c-.3 2.2-.6 4.5-.9 6.7v.9h.3c.1-.1.1-.3.1-.4.7-3.4 1.3-6.8 1.1-10.3 0-.6.1-1.1.8-1.2 1-.1 1.4.2 1.4 1 .2 4.6-.3 9.1-1.4 13.5-.1.2 0 .5 0 .8.1 0 .3 0 .4.1.4-2.4.9-4.8 1.3-7.2.4-2.4.8-4.8 1.1-7.2.2-.2.6-.5.6-.7 0-.3-.4-.6-.7-.7-.6-.3-1.3-.5-2-.8.7-1.4 2.1-2.4 2.1-4.2-.6.6-1.1 1.3-1.5 1.9-.5.7-1.1 1.4-1.6 2.1-.6-.2-1.3-.3-1.9-.5.6-1.2 1.3-2.5 2-3.8.2 0 .6.2.9.1.3 0 .6-.3.9-.4-.3-.2-.5-.4-.8-.6-.5-.2-1.1-.2-1.4-.5-.5-.5-.7-.3-1 .1-.7.9-1.4 1.9-2.2 2.8-.8 1-1.7 2-2.6 3-.1 0-.3-.1-.4-.1.1-.4 0-.9.2-1.2 1-1.4 2.1-2.8 3.2-4.1.2-.3.7-.4.9-.7.7-.8 1.4-1.6 2.1-2.5.1-.2.3-.3.3-.5.1-1.4.1-1.5 1.5-1.8 2.4-.5 4.6-1.3 6.6-2.7.5-.3 1.1-.9 1.6-.8 1 .2 1.3-.4 1.7-.9.5-.8 1.2-1.1 2-1 .4.1.8.2 1.3.3 1.2.3 2.3.8 3.3-.4.1-.1.3-.1.5-.1 2-.2 4.1-.5 6.2-.6.9-.1 1.6-.2 1.7-1.1l3.3.1c.1-.2.2-.3.4-.6-.9-.1-1.6-.1-2.3-.3-.8-.1-1.5-.3-2.3-.5-.1.1-.1-.1-.2-.2-.2-.2-.4-.4-.5-.6-.1.3-.3.5-.3.8 0 .4.1.9.2 1.4-.7.1-1.4.2-2.3.3.7-.9 1.2-1.6 1.7-2.3.6-.8.5-1-.4-1.3-.1 0-.2-.2-.3-.3-.2-1-.6-2.1-.6-3.1 0-1.9 0-3.8.3-5.7.2-1.3.8-2.6 1.2-3.9.1-.3.1-.5.1-.8-.3.1-.7.2-.8.4-.4 1-.7 2-1 3-.2.8-.2 1.7-.5 2.4-.5 1.2-1.3 2.4-1.9 3.5-.8 1.4-1.7 2.7-2.6 4.1-.1 0-.2-.1-.2-.1.2-.6.2-1.2.5-1.8.7-1.6 1.5-3.2 2.2-4.8.2-.5.3-1.1.1-1.5-.4-.8-.7-1.3.3-1.8.1 0 .2-.1.2-.2.5-1.8 1.1-3.6 1.6-5.5.2-.7.1-1.5.3-2.2.6-2.2 1.1-4.4 3.4-5.5-.6-.8-.4-1.4.2-2 .2-.2.1-.8.1-1.2 0-.4-.2-.9-.3-1.4 1.1.3 1.6 1.1 1.7 2.1 0 1.4.1 2.8.1 4.3 0 .3.2.6.3.9h.3c.1-.2.2-.4.2-.6V2.9c0-1-.6-1.9-1.4-2.5-.3-.2-.9-.4-1.2-.2-.4.2-.8.8-.7 1.1.2 1 0 1.9-.2 2.9s-.6 1.5-1.1 2.2l-.6.9c-1.3 2.8-2.1 5.6-2.5 8.6-.1 1-.3 2.1-1.4 2.7-.6.4-.6 1.1-.3 1.5.6 1 .1 1.7-.4 2.4-1.4 1.8-2.4 3.7-2.1 5.9.2 1.4-1.4 2.4-.5 3.8l-.1.1c-1-.2-2.1-.5-3-.7 0-.9.1-1.8.1-2.7 0-.9-.3-1.7-.4-2.6 1-.2 1.4-1 1.8-1.9.1-.2 0-.9-.2-1-.3-.1-1-.2-1.1 0-.3.4-.2 1.2-.6 1.5-.4.4-1.3.2-1.4 1-.2 1.5-.7 3.1-.4 4.5.4 2.2-.7 4.6-2.8 5.6-3.1 1.5-6.3 2.8-9.6 3.7-.4.1-.8.1-1.3.2 0-.5 0-.8.1-1.2.2-1.7.5-3.4.5-5 .1-2 .1-3.9-1.1-5.7-.1-.2-.2-.7 0-.9.7-.9.7-1.8.4-3h11.7c.3 0 .7-.3 1-.4-.3-.2-.5-.6-.8-.6-1.4-.1-2.8-.3-4.2-.2-2.5.1-4.9.4-7.3.6-.5 0-1-.1-1.4-.3-.9-.4-1.5-.2-2 .7-1 1.8-2.2 3.6-3.3 5.4-.1-.1-.3-.1-.4-.2.2-.6.4-1.3.7-1.8.6-1.2 1.2-2.3 1.8-3.4.2-.4.1-.7-.4-.8-.5-.1-1.1-.3-1.8-.6 1.3-.5 2.4-1 3.6-1.3 2.3-.7 4.5-1.6 6.5-2.9.4-.3.7-.7 1.2-1.2h.5c.2 0 .4-.1.6 0 .3.1.8.2 1 .4 2.1 2.9 4.9 4.6 8.2 5.8.2.1.5 0 .8-.1-.2-.2-.4-.5-.6-.6-2.6-.9-4.7-2.6-6.6-4.5-.2-.2-.4-.6-.4-.9-.1-.9-.5-1.3-1.5-1.4-.8 0-1.6.1-2.4 0-1.1-.2-1.4-.1-1.6.8 0 .1-.1.1-.1.1-.9.8-1.7 1.9-2.8 2.3-2.5 1.1-5.1 1.8-7.6 2.7-.3.1-.7.3-.7.5 0 .4.2 1 .4 1 .7.2.6.7.6 1.2v1.2c-.1 1.2-.1 2.4-.2 3.5-.1.7.1 1.6-.5 2.2-.2-1-.2-1.9-.6-2.7-.4-.9-.6-1.8-.5-2.8.1-.8-.4-1.2-1.1-1.2h-.9c.2-2 .4-3.9.5-5.5.4-.3 1-.6 1-.6-.2-.6.6-1.5-.4-2-.8-.4-1.4-.3-1.9.4-1.5 2.3-2.7 4.6-1.7 7.5-.5.5-1.1 1-1.8 1.5-1.3-.6-2.8-.4-4.2.4-1 .5-1.3 1.5-.9 2.6.1.2.2.4.1.6-.4.7-.6 1.5-1.2 2-1.2 1.2-1.8 2.8-2.7 4.1-.4.6-.6 1.6-1.9 1.3-.5-1.1-.9-2.3-1.5-3.5-.2-.4-.7-.7-1-1.1-.2-.2-.4-.4-.4-.6-.6-1.9-1-3.9-1.8-5.8-.9-2-2.8-3.4-5.5-2.3-.9.4-1.8.9-2.8 1.2-1.7.5-2.9 1.7-4.2 2.9-.2.2-.2.8-.5.9-.7.3-1.2 1.1-2.2.7-.2-.1-.6 0-.8.2-1.6 1-3.2 2-4.6 3.2-.8.7-1.5 1.5-2 2.5-1.4 2.4-2.6 4.9-4 7.3-.1.2-.4.5-.6.5-1.5-.1-2.4.6-3.1 1.9-.4.8-.4 1.3.2 1.9.7.6 1.4 1.2 2 1.7l-1.5 1.5c-.5.6-1.1 1.3-.4 2 .6.7 1.4 1.4 2.3 1.8.9.4 1.4 1 1.7 1.9.7 1.8 1.4 3.6 2 5.3-.1 0-.4-.2-.7-.3-.2 0-.6.1-.7.2-.1.2 0 .5.2.7.2.2.5.3.8.5 2.2 1.2 4.1 3 6.8 2.9.3 1.4.9 2.4 2.3 2.7 2 .4 4.1.8 6.1 1.2 0 .4.1.9.1 1.4 0 1 0 2-.1 3.1-.1 2.5-.1 2.6-2.6 2.4-2.2-.2-4.4-.4-6.6-.8-2.7-.5-5.4-1.1-8.2-1.6-1.5-.3-3-.4-4.5-.5-1.4-.1-2.9-.1-4.3-.2.2-.6.2-1.3-.6-1.7-1.2-.5-2.4-.8-3.8-.5-1.1.2-2.2.1-3.3.1-1-.1-2-.3-3-.4-4.5-.5-8.9-1.4-13.1-3.1-2.4-1-4.7-1.9-7.1-2.8-3.6-1.3-7.2-2.7-10.5-4.7-2.6-1.5-5.2-2.8-7.8-4.1-4.8-2.4-9.6-4.6-14.4-7.1-4.9-2.5-9.7-5.3-14.7-7.7-4.7-2.3-9.6-4.2-14.4-6.4-7.2-3.2-14.5-6.6-21.7-9.8-5.5-2.4-11-4.7-16.6-6.9-3.3-1.3-6.6-2.2-10-3.2-2.3-.6-4.7-1.2-7.1-1.4-2.4-.3-4.9-.1-7.4-.2-.7 0-1.4 0-2 .1-.2 0-.4.3-.6.5.2.1.4.2.7.2h.9c2 .1 4.1.2 6.1.3 1.8.1 3.6.1 5.4.4 3.9.7 7.7 1.7 11.4 3.2 4.1 1.7 8.4 3 12.5 4.7 7 2.9 13.9 5.9 20.9 9 7.1 3.2 14.3 6.4 21.3 9.8 4.3 2 8.5 4.2 12.7 6.3 3.4 1.8 6.7 3.8 10.1 5.6 5.1 2.7 10.3 5.3 15.5 7.9 3.2 1.6 6.3 3.1 9.6 4.5 2 .9 4.2 1.3 6.3 2.1 3.2 1.3 6.5 2.3 10 2.9 3.4.6 6.8 1.5 10.3 1.1 1.2-.1 2.1-.1 2.3 1.5l-.2.2c-.2.4-.5.8-.4 1.2.1.2.6.5 1 .5 1.9.1 3.9.2 5.8.3 1.2 0 2.4-.3 3.6 0 2 .4 4 1.1 6.1 1.6-.2.3-.5.7-.8 1-.3.2-.6.3-.9.5-.3.1-.6.3-1 .4.2.2.4.6.7.7.8.3 1.6.4 2.5.6-.7 1.1-1.4 1.6-2.6 1.4-1.6-.1-3.2-.1-4.8 0-.3 0-.5.4-.8.6.3.2.5.5.8.6.2.1.4 0 .6 0 1.2-.1 2.4-.3 3.6-.3 4 0 7.9.7 11.8 1.6 1.3.3 2.7.6 4 .8v.2c-1.6.1-3.2.3-4.8.4v.4c2.7.5 5.5 0 8.2.4-.4.2-.9.2-1.3.3-.3.1-.4.5-.6.7.2.1.5.4.7.4 1.9-.2 3.7-.5 5.6-.8.3 0 .5-.3.7-.5.3-.3.5-.6.7-.9.6-.5 1.3-.8 1.9-1.3.7-.7 1.4-.5 2.4-.3-.4.3-.7.5-.9.7-.8.5-1.7 1-2.5 1.6-.2.2-.3.6-.4.9h1c.2 0 .4-.2.6-.3.7-.4 1.5-.9 2.2-1.3.1.1.1.2.2.2-.4.3-.7.5-1.1.8-.2.2-.2.4-.3.7.2 0 .5.1.7 0 .6-.3 1.2-.7 1.8-1.1.8-.5 1.7-1.1 2.5-1.6l.3.3c-.2.2-.4.5-.6.6-1.1.9-2.3 1.7-3.3 2.6-.2.1-.1.5-.2.7.3 0 .5.1.7 0 .2 0 .3-.2.5-.3.9-.6 1.8-1.2 2.7-1.9.1.1.2.1.3.2-.2.4-.3.8-.5 1.1-.1.2-.2.5-.3.7.3 0 .6.1.8 0 1.4-.9 3-1.8 4.2-2.9 1.1-1 2-.6 3.1-.4 0 .1.1.2.1.3-1.9 1.2-3.7 2.4-5.6 3.7.1.1.1.2.2.3.3-.1.7-.2.9-.3.8-.5 1.6-1 2.4-1.4.4-.2 1.1-.4 1.2-.3 1.1 1 2.1.3 3.2.1 1.1-.2 2.2-.2 3.3 0 1.5.3 3.2.2 4.5 1.4.1.1.4.1.5 0 .4-.7 1-.3 1.6-.2 3.5.2 7.1.4 10.6.6 1.5.1 3 .1 4.6.2-.5.4-.9.6-1.2 1-.2.2-.2.5-.3.8.3 0 .7 0 .9-.1 1-.9 2-1.9 3-2.9.1-.1 0-.4 0-.6-.2 0-.6 0-.6.1-.5 1-1.4.8-2.3.7h-1c-1.9 0-3.8.1-5.8.1.2-.7.3-1.2.5-1.7.2-.7.8-.8 1.3-.4.1.1.3.2.5.3.6-.9 1.3-.4 2-.4 1.9.1 3.7 0 5.6.2.7.1 1.3.2 2 0 .4-.1.9.1 1.4.1h.4c.4-.1.9-.1 1.3-.2 0 .1.1.2.1.3-.9.9-1.9 1.8-2.8 2.8-.2.3-.3.7-.4 1.1.4-.1.9-.1 1.2-.4.9-1 1.7-2 2.4-3 .4-.6.9-.8 1.7-.7-1.2 2.9-3.6 4.6-5.9 6.4-.5-.1-.9-.2-1.3 0-1.6.6-3.2 1.2-4.9 1.2-.6 0-1.3-.1-1.9-.1-.2 0-.4.3-.6.4.2.2.3.5.5.5 1 .1 2.1.2 3 0 1.5-.3 3-.8 4.5-1.3.2.1.5.3.8.5-.2.1-.4.2-.6.4l-.6.6c.3 0 .6.2.9.1.4-.1.9-.5 1.3-.4.7.2 1.1-.2 1.5-.5 2.7-2.1 4.9-4.7 6.7-7.6.7-1.2 1.7-.8 2.8-1.1-.3.4-.4.7-.6.9-1.4 1.6-2.8 3.3-4.2 4.9-.4.5-.9 1-1.3 1.5-.1.2-.1.4-.2.6.2 0 .5-.1.7-.1.1 0 .1-.1.2-.2 2-2.3 3.9-4.6 5.9-6.9.1-.2.3-.3.4-.5.1.2.3.4.6.7.1-.5.1-.8.2-1.3 1.5-.2 3.1-.5 4.6-.7.1 0 .3.1.4.2.2.2.4.4.6.5-1 1-2 1.9-2.9 2.9-.1.1-.1.4-.1.6.2-.1.4-.1.6-.2 1.6-1.4 3.3-2.8 4.9-4.1.2-.1.4-.1.7-.2.1.1.1.2.2.2l-1.8 2.1c-.4.4-.9.8-1.4 1.2-.8.7-1.6 1.6-2.6 1.9-1.8.5-3.7.6-5.5.9 1.4-1.6 2.8-3.3 4.2-4.9l-.3-.3c-.2.1-.5.2-.7.4l-4.5 4.8c-.7.8-1.5 1.5-.6 2.6.4.6 0 .9-.7 1-.9.1-1.9.3-2.8.5-.2 0-.3.3-.5.4.2.1.3.3.5.3 2.1-.3 4.3-.5 6.4-.9.2 0 .4-.4.6-.6-.3-.1-.6-.4-.9-.4-.6 0-1.2.2-1.8.3-.3-1.6-.3-1.6 1.1-2.2.5-.2 1-.4 1.5-.5 2.7-.4 5.4-.8 8.1-1.1.7-.1 1.6-.5 2.3.2.1.1.4-.1.6-.2 1.3-.2 2.5-.4 3.8-.5.1 0 .2.2.4.2.5.2 1 .6 1.5.6 2.5 0 5 .1 7.5-.1 1.4-.1 2.8-.4 4.2-.9 1.7-.6 3.4-1.4 5-2 .7-.3 1.5-.3 2.2-.5-.8 1.1-1.6 2-2.5 2.8-.1.1-.4.2-.6.2-3.2.4-6.4.8-9.7 1.2-1.2.1-2.4.2-3.6.4-.2 0-.4.3-.7.5.3.1.5.2.8.2.5 0 1-.1 1.5-.1 2-.1 3.9-.2 5.9-.4 1.6-.2 3.1-.5 4.7-.8.5 1 .7 1 1.5.3 1.1-1.1 2.3-2.1 3.2-3.3.9-1.2 2-1.4 3.5-1-1.4 1.4-2.8 2.6-4.1 3.9-1 1-2.1 1.3-3.4 1.4-.3 0-.6-.1-.8 0-.3.1-.5.3-.8.5.3.1.6.5.8.4 1-.1 2.1-.3 3.1-.5.2 0 .4-.2.5-.4.3-.3.5-.7.8-1 1.4-1.2 2.9-2.3 4.2-3.6.7-.8 1.4-.9 2.4-.7 5 1.1 10.1 1.1 15.1.9 1.5-.1 3 0 4.9 0-.7.5-1.1.8-1.5 1.1-.2.2-.1.5-.2.8.2 0 .6 0 .7-.1.6-.5 1.1-1 1.7-1.5.5-.3 1-.5 1.5-.8 0 .1.1.2.1.3-.2.2-.4.3-.6.5-.6.5-1.2.9-1.8 1.5-.2.2-.2.5-.3.8.3-.1.6-.1.8-.3.9-.7 1.7-1.6 2.7-2.3.5-.4 1.1-.6 1.7-.7 3.5-.5 7-.7 10.5-1.3 5.3-.8 10.6-1.8 15.9-2.8 2.1-.4 4.1-1.1 6.2-1.7.9-.2 1.9-.4 2.9-.6h.3c.5-.2 1.2-.2 1-.9-.2.9-.7.7-1 .4zm-80.2.5c.4-.4.8-.6 1.3-.9.3.5.7 1 .9 1.6.2.5.1 1.1.2 1.7-1.7.2-3.3.3-5.1.5 1-1.1 1.8-2 2.7-2.9zm-47.1-13.6l.6-2.7c0 .9.4 1.9-.6 2.7zm-31.9-5.3c.1 0 .2.1.3.1-.3 1.8-1.6 3-2.3 4.9-.3-.6-.4-.9-.6-1.3.9-1.2 1.7-2.5 2.6-3.7zm24.1-7.6c-.4-.8-.3-.8 1.9-3.3.3.6-.5 2-1.9 3.3zm.3 6.2c-.1-.1-.2-.1-.2-.2.6-.8 1.2-1.6 1.9-2.4.1 0 .1.1.2.1l-1.9 2.5zm.5-2.6l-.3-.2c.5-1.4 1.8-2.2 2.5-3.3.1.1.2.1.2.2l-2.4 3.3zm2.7-6.2c-.1.6 0 1-.2 1.2-.8 1.1-1.8 2.2-2.7 3.3-.3-.8 1.3-3.3 2.9-4.5zm-4.2-.7c1.4-1.6 2.8-3.3 4.2-5-.6 2.7-2.3 4.8-4.1 6.9-.6-.7-.7-1.2-.1-1.9zm28.7-21c-.5 1-.9 2.1-1.4 3.1.1 0 .1.1.2.1-.5.1-1 .2-1.6.3 2.2-3.6 2.2-3.6 2.8-3.5zm-1.6.1c-.7.9-1.3 1.8-1.7 2.8-.4.8-.9.9-1.8.6.3-.5.5-1.1.9-1.6 1-1.5 2-3 3.1-4.6.3 1.1.2 1.9-.5 2.8zm-3.7-.4c1.3-1.9 2.6-3.7 4-5.6.3.9-.1 1.6-.5 2.2-1.2 1.8-2.4 3.6-3.7 5.4l-.5-.2c.3-.6.4-1.3.7-1.8zm-26.1 5.2c-.7-.6-.6-1.1-.1-1.7 1.5-2.1 2.9-4.2 4.3-6.1v2c-1.1 2.2-2.5 4.1-4.2 5.8zm3.9 8.5c.1.2.3.4.5.5.1-.2.4-.3.4-.5.1-.3.1-.7.1-1.1.5-.1 1-.2 1.6-.4-1.9 2.5-3.7 5-5.4 7.4h-.2c.1-.5 0-.9.2-1.3.4-.9.9-1.8 1.4-2.7.1-.3.2-.6.1-.9-.4-1.8-.8-3.6-1.2-5.5-.1-.3-.1-.7.1-.9 1-1.1 2.1-2.1 3.4-3.1-.1.9-.2 1.7-.3 2.6l-.6 4.8c-.1.5-.2.8-.1 1.1zm1-13v3.9c0 .1-.1.2-.1.2-1.3 1-2.5 2-3.9 3.1-.7-1.1-.7-2 .4-3.1 1.2-1.2 2.2-2.8 3.3-4.2.1 0 .2 0 .3.1zm-5.7.3c1.3-2 2.6-4.1 4-6.2.8 0 1.3.4 1.5 1.3-.3.3-.7.5-.9.7-1.6 2.1-3.1 4.2-4.7 6.3-.1.2-.3.3-.5.5-.2-1 0-1.8.6-2.6zm-.2-6.7h1.3c-.5.9-.8 1.6-1.2 2.3h-.1v-2.3zm-5.4-5.2h.3c-.3 2-.5 4-.8 6l-.3.1c-.3-.6-.7-1.2-.8-1.8-.1-1.5.7-3.3 1.6-4.3zM262.4 34c.6.8.5 2.2-.3 3.3-.9 1.1-1.9 2.1-2.9 3.2l-.2-.2c1.2-2.2 2.3-4.3 3.4-6.3zm-31.3 12.6c.6-.6 1-1.1 1.5-1.8 0 1 0 1.7.1 2.4-.5-.2-1-.4-1.6-.6zm18.6 30.9c.3-.3.8-.2 1.3-.4.1.1.1.2.2.2-.8 1.1-1.5 2.2-2.4 3.1-.3.3-1 .1-1.5.1l-.1-.3c.7-.8 1.5-1.8 2.5-2.7zm1.5 2c-.1.5-.1 1-.2 1.4-.1.1-.6.1-1.2.1.5-.7.8-1.1 1.2-1.6 0 .1.1.1.2.1zm-2.7-2.4c-.7 1.5-2.6 3.2-3.2 3 .7-.9 1.3-1.8 2.1-2.6.2-.3.7-.2 1.1-.4zm-2.3-.1c.1.1.1.2.2.3-.7.8-1.4 1.7-2.1 2.5-.1.1-.5 0-.9 0 .6-.9 1.1-1.7 1.7-2.4.2-.2.7-.2 1.1-.4zm-1.7 0c-.7.8-1.2 1.6-1.9 2.2-.3.2-.9 0-1.4.1.7-2.2 1.4-2.7 3.3-2.3zm-5.8 1.4c.6-1.2 1.4-1.9 2.9-1.4-1.4 2.1-1.2 2.2-2.9 1.4zm.7 2.9c.7-1.4 1-1.5 2.1-.9-.9 1.1-.9 1.1-2.1.9zm2.2.2c.6-.5.9-1.4 2-.9-.6.6-.9 1.4-2 .9zm1.9.4c.7-.5.9-1.4 2-1.1-.3.5-.6.9-.9 1.4-.3-.1-.6-.2-1.1-.3zm1.8.2c1.1-1.2 1.1-1.2 2.6-.7-1 1.3-1 1.3-2.6.7zm2.6.9c.8-.4.9-1.7 2.1-1.1-.3.5-.7 1-1 1.5-.3-.1-.6-.3-1.1-.4zm2.1.6c.3-.4.5-.7.7-1 .8.4.8.4 1.6-.4-.1.2-.1.5-.2.7-.5.8-1.2 1-2.1.7zm1.9.3c.9-.7 1.3-1.8 2.8-1.4-1 .5-1.3 1.7-2.8 1.4zm2.2.2c.6-.6 1.3-1.1 1.9-1.7.1.1.2.2.2.3-.6.6-1.3 1.2-1.9 1.9-.1-.2-.2-.5-.2-.5zm1.2.6c.9-.9 1.5-1.7 2.6-1.9-.8.6-1.1 1.9-2.6 1.9zm1.2 1.2c.7-.8 1.4-1.4 1.9-2.1.6-1 1.3-1.2 2.3-.8.6.2 1.3.2 2.1.3-1.9 1.5-3.6 2.9-6.3 2.6zm11.7-2.7c-.2.1-.2.2-.2.2-.2 0-.5-.1-.8-.1.2-.9.4-1.7.5-2.6.1-1.5.1-2.9.2-4.4 0-.4.2-.8.2-1.2 0-.3-.3-.6-.4-.9-.2.3-.5.5-.5.8 0 1.3.2 2.6.1 3.9-.1 1.4-.4 2.9-.7 4.5-1.1-.3-1.9-.6-2.7-.7-1.5-.2-3.1-.3-4.6-.5-1.6-.2-3.3-.3-4.9-.6-.3 0-.9-.4-.9-.7 0-1.3.1-2.6.1-3.8 1.6-.1 3.3-.2 5-.4.4 0 .9-.1 1.1-.3.3-.3.7-.8.7-1.2 0-.7-.6-.9-1.2-.8-1.6.3-3.3.5-4.9.8-.3 0-.6.1-.6.1 0-.9 0-1.7.1-2.6.2-1.7-.1-1.4 1.5-1.4.7 0 .9-.2.9-.9 0-.5-.1-1-.2-1.4 1.9-.1 3.7-.8 5.5-2.2 0 .8 0 1.5-.1 2.1 0 .3-.2.6-.3 1-.2 1.8.2 2.4 2 3 1.8.6 3.6 1 5.5 0 .1 0 .2.1.3.1l-.7 10.2zm2.7-6c1.2-2.2 2.3-4.3 3.5-6.4.1-.1.1-.2.2-.3.7 1.5-.2 2.6-.7 3.8-.9 1.8-1.8 3.5-2.8 5.3-.1.2-.3.3-.4.5 0-.7-.1-1.4-.1-2 0-.3.2-.7.3-.9zm-.4 5.4c.1-.5.2-1 .5-1.4 1.3-2.3 2.7-4.5 4-6.8.4-.6.6-1.3.9-2 .8.4.6.9.3 1.4-.7 1.4-1.5 2.8-2.3 4.1-.9 1.5-1.8 3-2.8 4.5-.1.2-.3.3-.4.5-.1-.3-.1-.3-.2-.3zm.1 4.1c-.1-1.5 1.2-2.3 2.9-1.9-1.1.7-1.9 1.3-2.9 1.9zm2.4-3.2c.9-1.5 1.7-3 2.5-4.5.8-1.4 1.7-2.8 2.6-4.4-.1 1.5.2 2.7-.8 3.9-1.1 1.4-2 2.9-2.9 4.5-.3.6-.7.7-1.4.5zm4.5-1.1c-.4 1.3-1 1.6-2.6 1.2.9-1.5 1.9-3 2.8-4.5.1 0 .2 0 .2.1-.1 1-.1 2.2-.4 3.2zm1.5-11.2c-.2.1-.5.2-.7.3-.1.1-.4.2-.4.3.3 1.3-.6 2.2-1 3.2-1.1 2.9-2.8 5.5-4.8 7.9-.2.3-.6.5-.9.7 0-.1-.1-.1-.1-.2 2.1-3.5 4.1-6.9 6.1-10.4.4-.8.4-1.8.7-2.6.2-.7.6-1.3.9-1.9.2-.4.4-.7.6-1 .3-.9.8-1.3 1.8-.8-.5.7-1 1.4-1.4 2.1-.6.8-1.4 1.4-.8 2.4zm9.7 1.8c.6 1.1.2 2.7-1 4.4 0-1.7-.3-3.2 1-4.4zm-2.8 4c.3 1.5-.1 3.6-.9 4.5.4-1.4-.1-3 .9-4.5zm-2.5 3.2c-.1-1.3.1-2.4 1-3.3.3 1.3-.2 2.3-1 3.3zm.8-4h-.3c-.5-1-.4-1.7.7-2.7l-.4 2.7zm-2.9-2c.5.3.8.5 1.3.8-.4.7-.9 1.5-1.4 2.3l-.2-.1.3-3zm-1 5.2c.8-.9 1.4-2 2.2-3.1.4 1 .4 1.8-.2 2.6-.8 1.1-1.5 2.2-2.3 3.3 0-1-.4-1.9.3-2.8zm-.3 4.5c.2-.3.4-.6.6-1 .2.1.5.2 1 .5-.6.4-1 .6-1.3.9-.1-.2-.2-.3-.3-.4zm.7 2.4c.2-.6.4-1.3 1.3-.9v1l-1.3-.1zm1.6-4.4c0 .1-.5-.1-.9-.1.5-.8.9-1.5 1.4-2.2.1 0 .2.1.4.1-.4.7-.6 1.4-.9 2.2zm1-8.6v-1.8c1.2.6.3 1.2.3 1.8h-.3zm.9 6.7l.2.1c-.1.7-.2 1.4-.4 2.1-.3-.1-.6-.1-1-.2.5-.7.8-1.4 1.2-2zm3.1 7.5c-1.3-.3-2.5-.6-3.8-.9.4-.5.7-.9 1-1.3.1.1.2.1.2.2v1.1c.6-.5 2 .8 1.8-1.1l1.2.1c-.2.6-.3 1.1-.4 1.9zm-.5-3v-.9c.4.1.8.2 1.1.3-.1.8-.1.8-1.1.6zm.3-2.8c.4-1.6.2-3.4 1.7-4.8.4 2-.7 3.4-1.7 4.8zm2.1 6c-1.1 0-1.1 0-.5-2.1h1c-.2.8-.4 1.5-.5 2.1zm1.4-1.8h.8c-.1.8-.2 1.5-.3 2.2-.3 0-.6-.1-1-.1.2-.7.4-1.4.5-2.1zm2.1 1.4c0 .3-.2.7-.3 1.1-.4-.1-.8-.2-1.2-.2.7 0 .7-.5.8-1 .1-.4-.2-1.3.6-1.1.8.1.1.7.1 1.2zm7.5-12.5c-.1 0-.2-.1-.3-.1.4-.9.7-1.8 1.1-2.7.5 1.1.3 1.6-.8 2.8zm.3-3l-.4-.2c.4-.7.8-1.4 1.1-2.2.1.1.2.1.3.2l-1 2.2zm1.3-10.8c.2 1.3 0 2.2-.7 3.6-.1 0-.1 0-.2-.1.2-1.2.5-2.3.9-3.5zm0 3.6c0 1.5.1 3-1.1 4.3-.3-1.7.6-3 1.1-4.3zm-2.5-2.8c.5-2.6.9-5.3 1.4-7.9l.3-.9c-.1 2.4-.2 4.9-.3 7.3 0 1.8-1 3.2-2.2 4.6.3-1.1.6-2.1.8-3.1zm1.1 2c0 2.2-.5 3.5-2.1 4.9-.3-1.9.9-3.3 2.1-4.9zm-2.9 8.2c-.3.7-.5 1.4-.8 2.2l-.3-.1c.2-.8-.3-1.8 1.1-2.1zm-2.1 8.2c.3-1.5.5-3 .8-4.5 0-.2.3-.5.4-.7.1.2.2.5.2.7-.1.6-.3 1.2-.3 1.8 0 .7.2 1.4.4 2.1h.4c.3-.2.5-.5.8-.7.2 1.1-.5 2-1.5 2.3-.3.1-.6.4-.7.7-.2.7-.5 1-1.4.7.4-.8.8-1.6.9-2.4zm.9 8.4l-2.6-.1c-.1-1.6.2-2.4 1.1-2.3-.1.4-.3.9-.4 1.3 0 .2.2.4.3.7.2-.1.4-.3.5-.4.1-.2.1-.4.2-.6.3-1.1.4-1.1 1.6-.7-.3.6-.5 1.4-.7 2.1zm1.1-5.8c-.1.1-.3.1-.5.1 0-.2-.1-.4 0-.5.3-.4.7-.7 1.1-1.1l.2.2c-.2.4-.5.8-.8 1.3zm-.1-4c.1-1.4.2-2.6 1.5-3.4.1 1.4-.7 2.3-1.5 3.4zm.5-3.2c-.3-1.7.8-2.5 1.7-3.7.2 1.7-.9 2.6-1.7 3.7zm.1-3.3c-.2-1.9 1.3-2.8 2-4.2.4 1.9-1 2.9-2 4.2zM303 76h.5c-.9 1.6-1.8 3.1-2.7 4.6-.1 0-.2-.1-.2-.1.7-1.4 1.5-2.9 2.4-4.5zm-3 9.3l-.1-.3c.6-.1 1.2-.2 1.9-.3-.4 1.1-1.2.6-1.8.6zm.6-2.6c.5-.6.6-1.5 1.8-1.1-.5.7-.8 1.3-1.8 1.1zm1.7 2.7c.2-.9.8-.7 1.5-.6-.6.9-.6.9-1.5.6zm4-2.6c-.3-.3-.4-.7-.7-.8-.2-.1-.5.3-.8.5-.2.1-.3.3-.7.3.1-.4.3-.8.4-1.3 1.4-.2 2.8-.4 4.3-.7v1.5c-.8.2-1.6.4-2.5.5zm1.3 3c-.1-.1-.1-.2-.2-.2.1-.4.2-.7.3-1.2l1.4.1c-.6.5-1.1.9-1.5 1.3zm1.3-.2c.2-.4.4-.7.5-.9.5.2 1.1.3 1.7.5-.7.7-1.4.3-2.2.4zm3 0c.6-.4.9-.6 1.3-.8-.2-.1-.3-.3-.5-.5h.8c0 .4 0 .7.1 1.2-.6 0-1 0-1.7.1zm2.3-1.2l2.4.1c-.1.3-.2.6-.4 1-.4-.9-1.6 0-2-1.1zm.6 5.4c-1.4 1.4-2.8 2.7-4.3 3.9-.5.4-1.3.5-2 .7 1.6-1.5 3.4-2.9 4.9-4.5.8-.8 1.3-1.9 1.9-3 .4-.8.9-.4 1.6-.3-.4 1.3-1.2 2.3-2.1 3.2zm4.7-16.4c.6-.1 1.1-.1 1.8-.2-.7 1-1.3 1.9-1.9 2.8-.1 0-.1-.1-.2-.1.1-.8.2-1.6.3-2.5zm1.7.8c.1 1.1-1.1 3.2-2.5 4.2.8-1.3 1.6-2.7 2.5-4.2zm-.1 3.2c-.4 1.5-1.5 2.6-2.5 3.8.2-1.6 1.6-2.5 2.5-3.8zm-1.1 7.3c.4-.5.7-.9 1.1-1.5.3 1.5.1 1.6-1.1 1.5zm4 0c.2-.4.4-.8.5-1.2 0-.1 0-.3-.1-.5-.2.1-.4.1-.5.2-.2.2-.3.5-.3.8-.2.8-.8 1.1-1.4.8-.3-.2-.4-1-.2-1.5.1-.4.7-.8 1.1-.8 1.2-.1 2.4.1 3.7.1-.4 1.7-1.2 2.3-2.8 2.1zm17.2-18.8c.1.1.2.2.4.3-1.6 2.2-3.1 4.4-4.7 6.6-.1 0-.2-.1-.4-.1.1-.5.1-1 .4-1.4 1.4-1.9 2.9-3.6 4.3-5.4zm-4.9 4.6c.5-1.2 1.6-1.9 2.3-2.9.1 0 .1.1.2.1-.8 1-1.5 2-2.3 2.9 0 0-.1-.1-.2-.1zm-.5 13.4l-1.4-.1c.4-.6.8-1.3 1.2-1.9h.2v2zm4.4-19.7c-1.4 1.5-2.6 3.1-4.1 4.9.1-.7 0-1.3.2-1.6 1.3-1.8 2.7-3.6 4.2-5.4.6.8.3 1.4-.3 2.1zm.3-3.5c-.1.4-.2.8-.5 1.1-1.2 1.5-2.5 3-3.7 4.5h-.2c.1-.3 0-.7.2-1 1.3-1.6 2.6-3.2 3.9-4.7.1 0 .2.1.3.1zm-4.5 1c.1-.4.1-.8.3-1 1.3-1.8 2.6-3.6 3.8-5.4.1-.1.1-.2.4-.2-.1.6-.1 1.2-.4 1.7-1.2 1.7-2.6 3.3-3.9 5-.1-.1-.1-.1-.2-.1zm.1 2.7c0-.8 0-1.4.6-2.1 1.2-1.2 2.4-2.6 3.7-4-.1.4-.2.8-.3 1.1-1.2 1.7-2.5 3.3-3.8 4.9 0 0-.1 0-.2.1zm-.7 13c.1.1.4.2.4.3 0 .8.1 1.7-.2 2.4-.5 1.1-1.2 2.1-1.8 3.2-.4.7-.8.9-1.5.6.8-2.1 3.1-3.7 3.1-6.5zm-2.5.6c-.6.8-.4 2.2-1.9 2.5.8-1.9 1.2-2.4 1.9-2.5zm-6.2 6.4c1-.7 1.3-2.1 2.5-2.6-.7 1.1-.8 2.6-2.5 2.6zm1.7-.3c1-.9 1-2.6 2.7-2.6-.3 1.6-1.5 2.8-2.7 2.6zm2.3 0c1.4-2 2.7-4.1 3.6-6.3-.5 2.3-1.5 4.3-2.9 6.1-.1.1-.4.2-.7.2zm-1.2 5.9c-.8.1-2 .1-3.4.2 1.9-1.5 3.6-2.8 5.5-4.2-.1.5-.1.8-.2 1.4.4-.2.6-.3.7-.4.3-.4.7-.8.9-1.3.4-.8 1-1.2 1.9-1.1.3 0 .5.2.8.3-.1.3-.2.7-.4.8-1.4 1.1-2.9 2-4.4 3.1-.3.3-.8.7-1.4 1.2zm1.2-.2l5.4-3.6c.1 1.2-3.9 3.8-5.4 3.6zm4.5-.1c-.5 0-1 0-1.7.1 1-.7 1.9-1.2 2.7-1.7.5 1.3.3 1.6-1 1.6zm1.9-15.7c-.1-.2 0-.5.1-.7l2.1-2.7c.1 0 .2.1.2.1-.5 1.9-1 3.9-1.5 5.8-.1 0-.1 0-.2-.1-.3-.7-.5-1.6-.7-2.4zm.7 5.8c0-.9.3-1.6.7-2.4.5-1 .7-2.2.9-3.3.2-.7 0-1.4.9-1.8.3-.1.4-.6.5-.9.5.4 1 .9 1.5 1.1.8.3 1 .7.7 1.5-.1.3.1.8.3.9 1 .5.8 1.3.4 1.8-1.5 2.1-3 4.2-4.6 6.3-.6-.8-1 .1-1.5.3.1-1 .2-2.2.2-3.5z"/><path class="st0" d="M323.8 32.4c.7.4 1.4.7 2.1 1.1.1.1.2.3.1.4-.1.1-.3.3-.4.3-.3 0-.6-.1-1.2 0 .7 1 1.4 2 2.3 3.1.9-1.3 1.6-2.5 2.4-3.6 1-1.3 1.2-2.7.9-4.4-.2-1.2.1-2.6.2-3.9 0-.3.3-.6.5-.8.1-.1.4 0 .7 0 0 .2 0 .4-.1.6-1 1.6-.6 3.3-.4 5 0 .2.3.3.5.4 0 .6-.1 1.1 0 1.6 0 .2.3.5.5.6.6.3.7.7.3 1.1-.5.5-.4 1-.1 1.5.3.6.4 1-.1 1.5-.6.7-1 1.6-1.5 2.4-.1.1 0 .3.3.5.2-.5.4-.9.7-1.3.2-.3.6-.5 1-.7 0 .4.1.8 0 1.2-.1.5-.5.9-.7 1.5.3.2.6.4 1 .7 0-.4 0-.6.1-.8.1-.2.3-.4.5-.6.1.2.4.5.4.7-.3 1.2.4 1.6 1.3 1.9.9.4 1.8.9 2.7 1.3l1.2.4c-.5-1.7-.8-3.2-1.2-4.7-.3-.9-.6-1.7-.4-2.7.2-1.2 0-2.5 0-3.8v-7.5c0-1.2-.3-2.5-.6-3.7-.2-.7-.6-1.3-1.5-1.5-.7-.1-.7-.6-.7-1.2.1-1.1.1-2.2.1-3.3 0-.4-.4-.8-.5-1.2-.1-.6-.2-1.2-.2-1.8 0-.1.3-.2.4-.2.2.1.4.2.4.4.6 1.6 1.1 3.2 1 4.9 0 .4-.1.8-.1 1.3 2 .8 2.2 2.6 2.3 4.3.1 1.7.1 3.4.1 5.2 1-.3 1.1.3.9 1-.5 2.1 0 3.9 1.1 5.7 1.1 1.8 2.1 3.7 2.3 5.9v1.7c0 .2-.3.3-.5.4-.1 0-.4-.3-.4-.4.3-3.5-1.8-6.2-3.4-9.2.1 1.2 0 2.4.2 3.5.4 2 .9 4.1 1.4 6.1 0 .2.2.3.3.5.4.4.4 2 0 2.3-.1.1-.5-.2-.9-.4 0 0-.1.2-.2.2-.3.1-.5.1-.8.1 0-.2-.2-.6-.1-.7.4-.6 0-.9-.5-1.1l-5.4-2.7c-.2-.1-.5-.1-.8-.1-.2 0-.5 0-.5-.1-.6-1.2-2-1.2-2.8-1.9-1.3-1.1-2.6-2.4-3.7-3.7-.5-.7-.6-1.7-.8-2.5-.2-.1.1-.5.3-.8zm6.9.3c-.1 0-.3-.1-.4-.1-.9 1.7-1.7 3.4-2.6 5.1-.1.1.1.3.1.4.2 0 .4 0 .4-.2.8-1.2 1.6-2.5 2.3-3.7.4-.4.2-1 .2-1.5zM318.5 38.5c1.2-.6 2.1-1 3-1.4.1-.1.4 0 .5.1-.1.2-.2.4-.3.5-2.1 1.1-4.3 2.3-6.4 3.4-.5.3-1.1.3-2 .5.8-1.2 1.4-2.2 2.1-3.1-.7.2-1.4 0-1.8.9-.3.8-1 1.4-1.5 2.1-.1.1-.4.2-.5.2-.1-.2-.2-.4-.3-.7-.3.4-.7.8-1.1 1.5.9-.1 1.6-.2 2.2-.3 0 .1.1.1.1.2-.2.2-.4.4-.6.5-2.7.9-5.3 1.8-8 2.8-1.2.4-2.4.9-3.7 1.3-.1-.1-.1-.2-.2-.3.6-.3 1.1-.6 1.8-1-.5-.2-.8-.5-1.2-.6-.3-.1-.6.1-.9.3-.3.1-.6.4-.8.3-.2-.1-.6-.5-.5-.7 0-.3.4-.8.6-.8 3.4-.3 6.2-2.3 9.3-3.4 3.2-1.2 6.4-2.7 9.5-4.1.9-.4 1.6-1.2 2.5-1.9 0 0-.1-.2 0-.3.2-.4.5-.8.8-1 .2-.1.8.2.9.5.2.5.4 1.3-.3 1.4-1.6.3-2.5 1.5-3.8 2.1l-1.2.6c.2 1.4-1.3 1.6-1.6 2.7 1-.3 2-.8 2.5-1.7.3-.5.6-1 1-1.5.1-.1.4-.1.6-.2 0 .2.1.5.1.7-.3-.3-.5-.1-.8.4zm-10.4 4.2c1.7-.1 1.6-1.7 2.6-2.7-1.8.3-2 1.6-2.6 2.7zm-3.9 1.4c1.4-.3 1.5-1.8 2.5-2.5-1.5.2-1.9 1.5-2.5 2.5zm-2.8-.2c.4.3.8.5 1.1.7l.7-1.4c-.6.3-1.1.5-1.8.7zM239.5 55.3c-.6.6-1.1 1.2-1.7 1.8-.2.2-.5.2-.7.4 0-.3-.2-.6-.1-.8.3-1.2.7-2.4 1.2-3.8-.4.5-.6.9-1 1.2-.3.3-.7.4-1 .6-.1-.4-.4-.9-.3-1.2.4-1.9 1.1-3.7 2.3-5.2.4-.5.5-.9.3-1.6-.5-1.9-.4-3.8.5-5.6.2-.4.7-.8 1.1-1.1.1-.1.5 0 .6.2.1.1 0 .4-.1.6-1.9 2.1-1.4 4.4-.5 6.7.1.2.3.5.5.6.3.3.9.5.9.8 0 .5-.3 1.1-.6 1.6-.9 1.6-1.9 3.2-2.8 4.8-.1.1-.1.3 0 .5.8-1 1.6-1.9 2.5-2.9.6-.6 1.2-1.2 1.8-1.7.3-.2.8-.2 1.1-.3-.1.4-.1.8-.3 1.1-1.1 1.9-2.3 3.8-3.4 5.7.1.1.2.1.3.2.8-.8 1.6-1.7 2.4-2.5.4-.4.8-.8 1.3-1.2.1-.1.5-.2.6-.1.1.1.2.4.2.6 0 .3-.1.6-.3.9-.7 1.7-1.3 3.4-2 5.1-.1.2-.4.4-.6.5-.1-.3-.2-.6-.2-.8.5-1.2 1-2.3 1.5-3.5.2-.4.3-.7.4-1.2-.2.1-.3.3-.5.4-.9 1-1.8 2.1-2.8 3.1-.1.2-.3.4-.5.4-.3.1-.6.3-.8.1-.2-.1-.4-.5-.3-.8.3-1 .7-2 1.1-3l.3-.6c-.3.1-.4.1-.4 0zm-2.7-2.8c.1.1.2.1.2.2 1-1 2.1-2 3.1-3-.4-.3-.7-.6-1.2-1-.6 1.2-1.3 2.5-2.1 3.8z"/><path class="st0" d="M327.1 34.5c0-.3.1-.7 0-1-.1-.4-.3-.8-.4-1.2-.1-.3-.3-.7-.1-.9.7-1.3.6-2.7.4-4-.2-1.2-.7-2.3-1-3.5-.1-.2-.1-.4-.1-.6.2-2.5-.2-5-1-7.3-.8-2.2-1.7-4.3-2.6-6.4-.1-.2 0-.4 0-.7.2.1.5.2.6.4 2.5 4.3 3.9 8.8 3.9 13.8 0 .9.4 1.8.8 2.8.1-.5.3-.9.4-1.4.5-1.6.9-3.1 2.2-4.3.1-.1.2-.4.2-.6-.1-1.6 0-3.1.6-4.5.1-.3 0-.7 0-1.1 0-1.3.7-2.2 1.7-3 .7-.5 1.9-.3 2.1.5 0 .1-.2.5-.4.5-.4 0-.9-.3-1.2-.1-.5.4-1.1.9-1.2 1.4-.3 1.8-1.3 3.6-.7 5.5.4 1.1.3 1.8-.7 2.7-.9.9-1.5 2.4-1.8 3.7-.3 1 .1 2.2.1 3.3v2.9c0 .7-.2 1.3-1.1 1.5-.2 0-.3.4-.4.6-.1.3-.1.7-.2 1h-.1zM217.1 74c-.1 0-.2.1-.3.1-5.4-1-10.9-1.8-16.1-3.4-2.7-.8-5.4-1.5-8-2.5-2.3-.9-4.5-2.1-6.8-3.1-3.3-1.5-6.7-3.1-10-4.6-.1 0-.2-.1-.2-.1-.2-.2-.3-.4-.5-.5.2 0 .5-.2.7-.1 1.1.4 2.3.9 3.4 1.4 3.1 1.3 6.2 2.7 9.3 4.1 2.1.9 4.2 2 6.3 2.7 2.4.8 5 1.4 7.4 2.1 2.5.7 4.9 1.3 7.4 1.9 2.1.5 4.2 1 6.4 1.5.4.1.7.2 1.1.3-.1 0-.1.1-.1.2zM321.2 52c-.5.7-1 1.3-1.3 1.8.2.3.3.6.5.9-.3.1-.7.4-1 .4-1.3.1-2.3-.7-2.7-1.8-.3-1.2.2-2.8 1.1-3.4 1.3-.8 3.1-.8 3.9.4.5.8.5 1.9.7 2.9 0 .1-.2.3-.3.3-.1 0-.3-.2-.4-.3-.2-.4-.3-.7-.5-1.2zM331.4 69.3c-.2-.7-.3-1.1-.4-1.6-1.1 0-2.3.1-3.4 0-.4 0-.7-.2-1.1-.3.3-.2.5-.5.8-.7.1-.1.2-.1.4-.2-.1-.9-.2-1.8-.2-2.7-1.5 0-2.9.1-4.3.1-.3 0-.6-.3-.9-.4.3-.2.6-.4.9-.4 2.7-.1 5.5-.1 8.2-.2.4 0 .8-.2 1.3-.2.2 0 .4.2.6.3-.1.2-.3.5-.4.6-.7.1-1.3.2-2 .2h-2.2c.1 1 .2 1.9.3 3 1.1-.1 2.1-.3 3.1-.4.5-.1.9-.2 1.3-.3.2 0 .4.2.5.3 0 .1-.2.3-.3.5 0 0-.1.1-.2.1-1.1.1-1.9.6-1.6 1.9-.1 0-.2 0-.4.4zM253 65.8c.1-.6.1-1.1.3-1.5.7-1.6 1.4-3.1 2.1-4.7.1-.3.1-.6.2-1-.6-.1-1.1-.1-1.5-.3-.2-.1-.3-.5-.4-.7.2-.1.5-.3.7-.3 1.3.4 2.5.4 3.8.2.2 0 .5.2.7.2l-.5.5c-.1.1-.3.3-.3.5 0 2-1.1 3.5-2 5.1-.5.8-1.4 1.4-1.4 2.6 0 .2-1 .5-1.5.7-.1 0-.2-.1-.2-.1-.3-.2-1.1.3-.9-.5.1-.3.7-.5 1.1-.7h-.2zm4.1-7.1c-.1 0-.2-.1-.3-.1-1 2.4-2 4.8-3 7.3.1 0 .3.1.3 0 1.2-2.4 3.1-4.4 3-7.2zM374.4 90.8c-1.9-.2-3.9-.5-5.8-.7-1.2-.1-2.4.1-3.6.1-.5 0-1 0-1.5-.1-.2 0-.3-.3-.4-.5.2-.1.4-.4.6-.4 1.2-.1 2.4-.1 3.6-.1 4.2.2 8.3.4 12.5.7.3 0 .5.3.8.5-.3.1-.6.4-.9.4-1.7 0-3.4-.1-5.2-.2-.1.1-.1.2-.1.3zM274.9 55.2c-.6-.1-1-.2-1.5-.3.1-.2.3-.5.4-.6.4-.1.8-.1 1.3-.1-.1-.1-.2-.4-.4-.7-1.9-2.6-.9-7.3 1-9.2.2-.2.5-.2.8-.3 0 .3 0 .6-.2.8-2.1 3-1.9 6.1-.5 9.3.1.3.1.7 0 .9-.5.7-1.1 1.4-1.7 2-.1.1-.4.1-.6.1 0-.2 0-.4.1-.6l1.3-1.3zM293.4 64.8V64c.2-2.4.5-4.9.6-7.3.1-1.1-.1-2.3-.1-3.4 0-.3.2-1 .4-1 .7-.1.7.5.6 1-.1 2.5-.3 5-.5 7.4-.1 1.2-.4 2.5-.6 3.7 0 .2-.1.3-.2.5 0-.1-.1-.1-.2-.1zM223.5 77.3s-.3-.2-.5-.3c.3-.1.5-.3.8-.4 2.4-.4 4.7-.7 7.1-1.1.1 0 .2-.1.3 0 .4.1.7.3 1.1.4-.3.3-.5.6-.9.7-.9.2-1.8.3-2.6.3-1.7.2-3.4.3-5.3.4zM256 66.7c.5-.9 1-1.8 1.4-2.7 1.2-2.8 2.2-5.6 2.5-8.7 0-.2.2-.4.4-.6.1.2.4.5.3.7-.6 2.2-1.2 4.5-1.9 6.7-.5 1.4-1.2 2.7-1.9 4.1-.1.3-.3.5-.5.7-.1-.1-.2-.1-.3-.2zM267.9 64.3c-.1.2-.1.4-.2.5-.9 1.7-1.8 3.3-2.8 5-.1.2-.5.2-.8.4 0-.3-.1-.6 0-.8.9-1.7 1.8-3.4 2.7-5 .1-.2.5-.3.8-.4 0-.2.2.1.3.3zM278.9 94.5c-.6.4-1.4 1-2.2 1.5-.2.1-.5 0-.8.1.1-.2.2-.5.3-.7.9-.8 1.8-1.5 2.7-2.2.5-.4.9-.3 1.1.2.3.6.6 1 1.3 1.1.1 0 .3.3.4.5-.2.1-.4.4-.5.3-.8-.1-1.5-.4-2.3-.8zM278.1 55.2c-1 1.2-1.9 2.3-2.8 3.4-.2.3-.2.8-.3 1.1-.1.3-.3.6-.4.8-.1.3-.3.5-.4.8-.1.2-.3.3-.5.5-.1-.2-.3-.5-.3-.6.5-1.2 1-2.4 1.7-3.5.6-.9 1.5-1.5 2.2-2.3.2-.2.5-.1.8-.2zM300.8 24.9c.8.1 1.4.2 2 .3.1 0 .3.3.4.4-.1.1-.3.3-.4.3-1.6.2-3.2.3-4.9.4-.2 0-.4-.3-.7-.5.2-.2.3-.6.5-.6 1.2-.1 2.3-.2 3.1-.3zM328.7 53.3c.1-.6.1-1.2.2-1.8.1-.3.3-.5.4-.8.1.3.3.5.3.8 0 .5 0 1-.1 1.5h.3c.2.1.5.2.7.3-.2.1-.4.4-.6.4H326c-.1 0-.3-.3-.4-.4.2-.1.3-.3.5-.3 1 .2 1.8.2 2.6.3zM316.2 97.5c-.1 0-.2-.2-.4-.3.1-.2.3-.5.4-.5 1.4-.2 2.7-.4 4.1-.6.2 0 .5.3.7.5-.2.2-.5.5-.7.5-1.3.2-2.6.2-4.1.4zM274.4 63.9c.3-.7.5-1.5.9-2.2.4-.9 1-1.8 1.5-2.6.1-.2.5-.3.8-.4 0 .3.1.6 0 .8-.6 1.1-1.3 2.1-1.9 3.2-.3.5-.5.9-.7 1.4-.3-.1-.4-.2-.6-.2zM239 39.4c-.1-.1-.3-.2-.3-.3 0-.2 0-.6.1-.7 1.1-.7 2.3-1.3 3.4-1.9.1-.1.4.1.5.2.1.1 0 .4-.2.5-1.1.7-2.2 1.3-3.3 2 0 .2-.1.2-.2.2zM271.4 92.7c-.4.2-.7.5-1.1.6-.2.1-.4 0-.7-.1.1-.2.1-.5.3-.6.4-.3.8-.6 1.3-.7.8-.2 1.6-.5 2.1-1.3.1-.1.3-.1.5-.1 0 .2.1.4 0 .5-.4.7-.8 1.4-1.3 2-.1.2-.7 0-1.1-.1v-.2zM392.6 88.7c-.1.1-.2.3-.4.4-1.6 1.1-3.2 2.1-4.9 3.1-.2.1-.5.1-.7.1.1-.2.1-.5.3-.6 1.6-1.1 3.3-2.1 5-3.1.2-.1.4-.1.6-.1 0 .1 0 .2.1.2zM385.9 92.2c-.1-.1-.4-.2-.4-.2 0-.2 0-.5.2-.7.6-.5 1.2-1.1 1.8-1.6l1.8-1.2c.1-.1.4 0 .6 0 0 .2 0 .5-.1.6-1.1 1-2.3 1.9-3.5 2.9-.2.1-.3.1-.4.2zM355.1 95.1c-.2-.1-.4-.3-.7-.5.2-.2.5-.4.7-.5.9-.3 1.9-.5 2.9-.6.3-.1 1 .1 1 .3.1.6-.4.5-.9.6-.8.2-1.8.5-3 .7zM331.7 49c-.1.1-.2.3-.3.3h-4.2c-.1 0-.3-.3-.3-.5 0-.1.2-.3.4-.3 1.4.1 2.8.1 4.2.2 0 .1 0 .2.2.3zM334.4 95.1c-.1.1-.3.2-.5.3-.8.2-1.6.5-2.5.6-.2 0-.5-.2-.8-.4.2-.2.3-.5.5-.5.7-.3 1.5-.5 2.3-.7.7-.2 1.1.1 1 .7zM296.3 50.6c0-.3-.2-.5-.1-.7.8-1.1 1.6-2.3 2.4-3.4.1-.1.4-.2.5-.1.1.1.2.4.1.5-.8 1.2-1.7 2.3-2.5 3.5 0 .1-.1.1-.4.2zM341.3 48.3c0-.2-.1-.5-.1-.7.2-1.2.4-2.3.7-3.5 0-.2.3-.4.4-.6.1.2.2.5.2.7-.2 1.1-.4 2.3-.6 3.4-.1.2-.3.5-.4.7 0 .1-.1.1-.2 0zM284.7 94.8c-.6-.3-1.1-.5-1.5-.9-.1-.1-.1-.5 0-.7.2-.3.6-.6.9-.7.1 0 .5.3.6.5.2.3.4.6.5.9.1.2.2.4.1.5-.2.3-.5.3-.6.4zM170.1 55.4c-1.8-1.1-3.6-2.1-5.4-3.2.1-.1.1-.3.2-.4 1.8 1.1 3.6 2.1 5.4 3.2 0 .2-.1.3-.2.4zM291.1 94.7c-.7-.3-1.3-.5-1.8-.7-.2-.1-.3-.5-.4-.7.3-.1.6-.3.9-.2.5.1.9.3 1.3.6l.9.6c-.3.1-.6.3-.9.4zM232.8 78c-1.5.4-3 .7-4.6 1.1.4-.9 3.3-1.7 4.5-1.4 0 .1 0 .2.1.3zM305.4 91.5c.1-.2.1-.4.2-.5.6-.7 1.2-1.5 1.8-2.2.1-.1.3-.1.5-.2 0 .2.2.4.1.6-.2.4-.5.8-.8 1.2-.5.5-1 .9-1.5 1.4-.1-.2-.2-.2-.3-.3zM402.5 87.3c.3.3.5.4.7.5l-.4.4c-.5.3-.9.6-1.4.9-.2.1-.5.1-.8.2 0-.3-.1-.7.1-.8.5-.4 1.2-.7 1.8-1.2zM294.5 46.3c.3.7-.3 2.7-.8 3-.1.1-.3.1-.4 0-.1 0-.2-.2-.1-.3.4-.9.9-1.8 1.3-2.7zM269.3 68.9c-.3.8-1 .5-1.4.5-.7-.1-1.4-.1-1.8-1 1 .2 2 .3 3.2.5zM243.6 35.2c-.2.1-.3.3-.5.3-.6.3-1.3.5-2 .7-.1 0-.3 0-.4-.1-.1-.1-.1-.4 0-.4.8-.3 1.7-.7 2.5-1 .1.1.2.3.4.5zM257.4 90.3c.7-.8 2-1.1 2.7-.6.1.1.3.3.3.4 0 .1-.2.3-.3.3-.9 0-1.8-.1-2.7-.1zM306.9 79.8c0-.3-.1-.5-.1-.8 0-.7-.1-1.5-.1-2.2 0-.1.1-.4.2-.4s.4.1.4.2c0 1.1-.1 2.1-.1 3.2h-.3zM303.6 57h.5c.2.1.3.2.5.3l-.4.4c-.3.1-.7.2-1 .1-.3-.1-.5-.4-.7-.6.2-.1.5-.2.7-.3.2 0 .3.1.4.1zM337.5 95.3c-.5.3-.8.6-1 .5-.2 0-.4-.4-.7-.6.2-.2.4-.6.6-.6.4 0 .6.3 1.1.7zM319.2 40.5c.7-.4 1.2.1 1.8.3.1 0 .1.3 0 .3-.1.1-.3.2-.4.2-.5-.1-1-.3-1.5-.5.1 0 .1-.2.1-.3zM397.8 89.8l-.4-.6 1.2-.9s.2.2.4.3c-.4.4-.8.7-1.2 1.2zM305.3 52c.1-1 .7-1.2 1.7-.6-.6.2-1.1.3-1.7.6zM338.5 82.1c0-.6-.2-1-.1-1.3l2.1-4.8c.1-.2.4-.2.6-.4 0 .2 0 .5-.1.7-1 1.7-2 3.5-2.2 5.5.1 0 0 0-.3.3zM288.9 38.3c.1.1.2.3.3.4.2.9.4 1.7.5 2.6 0 .3-.3.5-.5.8-.2-.2-.6-.4-.6-.7 0-1 .1-2 .1-3.1 0 .1.1.1.2 0zM258.6 85.7c0-.7 1-2.2 1.3-2.2.1 0 .3.1.3.1 0 .1 0 .3-.1.4-.4.5-.8 1-1.5 1.7z"/></g></svg>